<?xml version="1.0" encoding="UTF-8" standalone="no"?>
<!-- Created with Inkscape (http://www.inkscape.org/) -->

<svg
   width="210mm"
   height="297mm"
   viewBox="0 0 210 297"
   version="1.1"
   id="svg1"
   xml:space="preserve"
   inkscape:version="1.4 (86a8ad7, 2024-10-11)"
   sodipodi:docname="1.svg"
   xmlns:inkscape="http://www.inkscape.org/namespaces/inkscape"
   xmlns:sodipodi="http://sodipodi.sourceforge.net/DTD/sodipodi-0.dtd"
   xmlns:xlink="http://www.w3.org/1999/xlink"
   xmlns="http://www.w3.org/2000/svg"
   xmlns:svg="http://www.w3.org/2000/svg"><sodipodi:namedview
     id="namedview1"
     pagecolor="#ffffff"
     bordercolor="#000000"
     borderopacity="0.25"
     inkscape:showpageshadow="2"
     inkscape:pageopacity="0.0"
     inkscape:pagecheckerboard="0"
     inkscape:deskcolor="#d1d1d1"
     inkscape:document-units="mm"
     inkscape:zoom="0.49264169"
     inkscape:cx="658.69374"
     inkscape:cy="658.69374"
     inkscape:window-width="1360"
     inkscape:window-height="705"
     inkscape:window-x="1358"
     inkscape:window-y="-8"
     inkscape:window-maximized="1"
     inkscape:current-layer="g16" /><defs
     id="defs1"><linearGradient
       id="linearGradient11"
       inkscape:collect="always"><stop
         style="stop-color:#ece8dd;stop-opacity:1;"
         offset="0"
         id="stop11" /><stop
         style="stop-color:#e0cfb5;stop-opacity:1;"
         offset="1"
         id="stop12" /></linearGradient><linearGradient
       id="linearGradient5"
       inkscape:collect="always"><stop
         style="stop-color:#b99d7f;stop-opacity:1;"
         offset="0"
         id="stop5" /><stop
         style="stop-color:#d0b597;stop-opacity:1;"
         offset="1"
         id="stop6" /></linearGradient><linearGradient
       id="linearGradient3"
       inkscape:collect="always"><stop
         style="stop-color:#ebae9b;stop-opacity:1;"
         offset="0"
         id="stop3" /><stop
         style="stop-color:#ac6b57;stop-opacity:1;"
         offset="1"
         id="stop4" /></linearGradient><linearGradient
       inkscape:collect="always"
       xlink:href="#linearGradient3"
       id="linearGradient4"
       x1="515.88871"
       y1="680.43189"
       x2="991.62365"
       y2="680.43189"
       gradientUnits="userSpaceOnUse"
       gradientTransform="translate(-148.39439,192.9127)" /><linearGradient
       inkscape:collect="always"
       xlink:href="#linearGradient5"
       id="linearGradient6"
       x1="884.25691"
       y1="940.55801"
       x2="1086.7706"
       y2="940.55801"
       gradientUnits="userSpaceOnUse"
       gradientTransform="translate(-47.48952,127.45367)" /><filter
       inkscape:collect="always"
       style="color-interpolation-filters:sRGB"
       id="filter6"
       x="-0.002836403"
       y="-0.0015190863"
       width="1.0056728"
       height="1.0030382"><feGaussianBlur
         inkscape:collect="always"
         stdDeviation="0.56634209"
         id="feGaussianBlur6" /></filter><filter
       inkscape:collect="always"
       style="color-interpolation-filters:sRGB"
       id="filter7"
       x="-0.006666201"
       y="-0.0026744563"
       width="1.0133324"
       height="1.0053489"><feGaussianBlur
         inkscape:collect="always"
         stdDeviation="0.56634209"
         id="feGaussianBlur7" /></filter><linearGradient
       inkscape:collect="always"
       xlink:href="#linearGradient11"
       id="linearGradient12"
       x1="-491.55338"
       y1="944.21387"
       x2="-293.17747"
       y2="943.78519"
       gradientUnits="userSpaceOnUse"
       gradientTransform="matrix(1.350479,0,0,1.2971207,170.4991,-309.14705)" /><filter
       inkscape:collect="always"
       style="color-interpolation-filters:sRGB;"
       id="filter12"
       x="-0.061189599"
       y="-0.062222859"
       width="1.1529817"
       height="1.1540653"
       inkscape:label="Drop Shadow"><feGaussianBlur
         inkscape:collect="always"
         stdDeviation="0.21491746"
         id="feGaussianBlur12"
         result="fbSourceGraphic" /><feColorMatrix
         result="fbSourceGraphicAlpha"
         in="fbSourceGraphic"
         values="0 0 0 -1 0 0 0 0 -1 0 0 0 0 -1 0 0 0 0 1 0"
         id="feColorMatrix12" /><feFlood
         id="feFlood12"
         result="flood"
         in="fbSourceGraphic"
         flood-opacity="0.498039"
         flood-color="rgb(0,0,0)" /><feGaussianBlur
         id="feGaussianBlur13"
         result="blur"
         in="fbSourceGraphic"
         stdDeviation="6.700000" /><feOffset
         id="feOffset13"
         result="offset"
         in="blur"
         dx="8.300000"
         dy="7.900000" /><feComposite
         id="feComposite13"
         result="comp1"
         operator="in"
         in="flood"
         in2="offset" /><feComposite
         id="feComposite14"
         result="comp2"
         operator="over"
         in="fbSourceGraphic"
         in2="comp1" /></filter><filter
       style="color-interpolation-filters:sRGB;"
       inkscape:label="Drop Shadow"
       id="filter16"
       x="-0.025939735"
       y="-0.019452191"
       width="1.0642252"
       height="1.0477163"><feFlood
         result="flood"
         in="SourceGraphic"
         flood-opacity="0.498039"
         flood-color="rgb(0,0,0)"
         id="feFlood14" /><feGaussianBlur
         result="blur"
         in="SourceGraphic"
         stdDeviation="6.700000"
         id="feGaussianBlur14" /><feOffset
         result="offset"
         in="blur"
         dx="8.300000"
         dy="7.900000"
         id="feOffset14" /><feComposite
         result="comp1"
         operator="in"
         in="flood"
         in2="offset"
         id="feComposite15" /><feComposite
         result="comp2"
         operator="over"
         in="SourceGraphic"
         in2="comp1"
         id="feComposite16" /></filter><filter
       style="color-interpolation-filters:sRGB;"
       inkscape:label="Drop Shadow"
       id="filter2"
       x="-0.070155551"
       y="-0.040908989"
       width="1.1428378"
       height="1.1308913"><feFlood
         result="flood"
         in="SourceGraphic"
         flood-opacity="0.498039"
         flood-color="rgb(0,0,0)"
         id="feFlood1" /><feGaussianBlur
         result="blur"
         in="SourceGraphic"
         stdDeviation="6.700000"
         id="feGaussianBlur1" /><feOffset
         result="offset"
         in="blur"
         dx="8.300000"
         dy="7.900000"
         id="feOffset1" /><feComposite
         result="comp1"
         operator="in"
         in="flood"
         in2="offset"
         id="feComposite1" /><feComposite
         result="fbSourceGraphic"
         operator="over"
         in="SourceGraphic"
         in2="comp1"
         id="feComposite2" /><feColorMatrix
         result="fbSourceGraphicAlpha"
         in="fbSourceGraphic"
         values="0 0 0 -1 0 0 0 0 -1 0 0 0 0 -1 0 0 0 0 1 0"
         id="feColorMatrix2" /><feFlood
         id="feFlood2"
         result="flood"
         in="fbSourceGraphic"
         flood-opacity="0.498039"
         flood-color="rgb(0,0,0)" /><feGaussianBlur
         id="feGaussianBlur2"
         result="blur"
         in="fbSourceGraphic"
         stdDeviation="8.000000" /><feOffset
         id="feOffset2"
         result="offset"
         in="blur"
         dx="9.000000"
         dy="8.000000" /><feComposite
         id="feComposite3"
         result="comp1"
         operator="in"
         in="flood"
         in2="offset" /><feComposite
         id="feComposite4"
         result="comp2"
         operator="over"
         in="fbSourceGraphic"
         in2="comp1" /></filter></defs><g
     inkscape:label="Layer 1"
     inkscape:groupmode="layer"
     id="layer1"><g
       id="g7"
       transform="matrix(0.26458333,0,0,0.26458333,200.39259,119.2755)"><g
         id="g8"
         transform="translate(-861.66601,-271.58528)"
         style="filter:url(#filter16)" /><g
         id="g16"
         transform="translate(-232.08196,-375.28147)"><g
           id="g1"
           style="filter:url(#filter2)"><path
             style="mix-blend-mode:normal;fill:url(#linearGradient4);filter:url(#filter6)"
             d="m 367.49433,1319.837 0.87291,-857.19568 c 0,0 10.58168,-9.40992 16.58526,-13.09362 7.10179,-4.35756 14.89207,-7.55453 22.69561,-10.4749 6.81278,-2.54959 13.83971,-4.57373 20.94979,-6.11035 10.05517,-2.17311 20.34385,-3.08895 30.55178,-4.36454 8.13054,-1.016 16.24894,-2.47359 24.44142,-2.61873 12.24993,-0.21702 24.56318,0.68925 36.66215,2.61873 10.66254,1.70041 21.17514,4.46089 31.42469,7.85617 14.36287,4.75787 28.55949,10.31876 41.89959,17.45816 8.32472,4.45526 16.20062,9.80775 23.56852,15.71235 7.22661,5.79137 13.80197,12.39302 20.07689,19.20398 9.39119,10.19344 17.96968,21.1364 26.18724,32.2976 5.59809,7.6034 10.90853,15.43995 15.71235,23.56852 4.17141,7.05846 8.23183,14.23895 11.3478,21.8227 4.86182,11.83286 7.81897,24.36575 11.34781,36.66214 2.82293,9.83664 4.8915,19.88403 7.85617,29.67888 3.65194,12.06549 7.8416,23.96823 12.22072,35.78923 3.81024,10.28535 6.98543,20.91342 12.22071,30.55179 2.88993,5.32048 6.63679,10.1567 10.4749,14.83944 3.40741,4.15725 6.98572,8.23633 11.09214,11.70483 4.62759,3.90871 10.01199,6.82324 15.0951,10.11787 6.48597,4.2039 13.04431,8.29712 19.65007,12.31016 3.93171,2.38854 8.1686,4.30174 11.89244,7.00294 3.25674,2.36238 6.14938,5.19819 9.05093,7.98534 2.24629,2.15772 4.52489,4.31102 6.4587,6.75273 3.01482,3.80664 5.80012,7.85452 7.94108,12.21296 2.71838,5.53391 4.48343,11.51116 6.11035,17.45817 1.95748,7.15537 3.5774,14.44629 4.36454,21.8227 17.6621,165.51403 7.60051,499.30333 7.60051,499.30333 z"
             id="path1"
             sodipodi:nodetypes="ccaaaaaaaaaaaaaaaaaaaaaaaaaaacc"
             transform="matrix(1.0716042,0,0,1,-922.39068,-271.58528)" /><path
             d="m 875.17365,815.71893 c -6.93107,-0.95268 -13.97894,-1.88964 -20.9492,-1.28729 -6.25752,0.54076 -18.32997,4.36496 -18.32997,4.36496 l 7.85533,501.922 163.23439,1.7461 c 0,0 4.5695,-16.7302 6.3652,-25.2088 0.7125,-3.3636 1.1887,-6.7732 1.746,-10.166 0.8597,-5.2329 1.7306,-10.4651 2.4649,-15.717 0.9528,-6.8139 1.7433,-13.6464 2.5177,-20.4863 0.9433,-8.332 1.6564,-16.7001 2.5924,-25.0333 1.6142,-14.3724 3.7497,-28.6588 5.2135,-43.0546 2.2133,-21.7668 3.5336,-43.652 5.3934,-65.4667 1.0919,-12.8073 2.4826,-25.5876 3.3847,-38.4082 1.1656,-16.5673 2.1824,-33.1534 2.6191,-49.7559 0.306,-11.6346 0.9776,-23.3185 0,-34.91598 -1.3139,-15.58666 -4.1532,-31.06617 -7.8555,-46.26364 -1.8079,-7.42114 -3.997,-14.79446 -6.9843,-21.82422 -3.3605,-7.90772 -7.6466,-15.42192 -12.2207,-22.69532 -4.2137,-6.70023 -8.6762,-13.31603 -13.96682,-19.20312 -11.01593,-12.258 -23.50051,-23.25312 -36.6621,-33.17188 -10.12327,-7.62904 -20.91287,-14.5007 -32.29693,-20.07617 -7.52371,-3.68482 -15.52464,-6.38715 -23.5684,-8.72851 -10.00195,-2.91135 -20.23268,-5.15165 -30.5527,-6.57013 z"
             id="path3"
             style="fill:url(#linearGradient6);filter:url(#filter7)"
             sodipodi:nodetypes="aacccaaaaaaaaaaaaaaaaaa"
             transform="matrix(1.2077509,0,0,0.99825459,-1038.3834,-270.16646)" /><path
             style="mix-blend-mode:normal;fill:url(#linearGradient12);stroke-width:1.32352;filter:url(#filter12)"
             d="m -496.56506,782.01489 c 0,0 8.64831,-0.17257 12.9673,0 9.45336,0.37772 18.90207,1.19909 28.29223,2.26453 8.41447,0.95473 16.8502,1.96951 25.09716,3.69496 5.28552,1.10585 10.4958,2.52669 15.55258,4.25115 8.95189,3.05276 17.69685,6.62227 26.04838,10.74633 7.28816,3.59897 14.06729,7.92156 20.87778,12.15676 6.25219,3.88801 12.47405,7.83512 18.32898,12.15674 9.51579,7.02377 18.67368,14.44021 27.22723,22.32702 5.12149,4.72228 9.88489,9.73975 14.37374,14.9166 3.10117,3.57648 5.71799,7.44624 8.65235,11.12542 5.58992,7.00881 11.63753,13.74762 17.05461,20.85617 3.63833,4.77439 7.02342,9.69015 10.36371,14.62312 4.66758,6.89313 9.57462,13.6966 13.51806,20.91674 3.89484,7.13119 6.9875,14.577 9.96328,22.02866 1.93956,4.85688 3.27319,9.88024 5.13409,14.75985 1.63086,4.2764 3.87543,8.37943 5.28234,12.7143 1.95387,6.02012 2.88406,12.25212 4.35776,18.37258 1.8682,7.75878 4.32419,15.42548 5.68486,23.26208 1.30144,7.4955 2.82131,15.0771 2.3577,22.6452 -0.0586,0.957 -0.64633,2.8206 -0.64633,2.8206 h -269.95531 z"
             id="path8"
             sodipodi:nodetypes="caaaaaaaaaaaaaaaaaaaccc"
             transform="matrix(1.1103807,0,0,1.2906886,24.165074,-305.70113)" /></g></g></g></g></svg>
