<?xml version="1.0" encoding="UTF-8" standalone="no"?>
<!-- Created with Inkscape (http://www.inkscape.org/) -->

<svg
   width="210mm"
   height="297mm"
   viewBox="0 0 210 297"
   version="1.1"
   id="svg1"
   xml:space="preserve"
   inkscape:version="1.4 (86a8ad7, 2024-10-11)"
   sodipodi:docname="elder.svg"
   xmlns:inkscape="http://www.inkscape.org/namespaces/inkscape"
   xmlns:sodipodi="http://sodipodi.sourceforge.net/DTD/sodipodi-0.dtd"
   xmlns:xlink="http://www.w3.org/1999/xlink"
   xmlns="http://www.w3.org/2000/svg"
   xmlns:svg="http://www.w3.org/2000/svg"><sodipodi:namedview
     id="namedview1"
     pagecolor="#ffffff"
     bordercolor="#000000"
     borderopacity="0.25"
     inkscape:showpageshadow="2"
     inkscape:pageopacity="0.0"
     inkscape:pagecheckerboard="0"
     inkscape:deskcolor="#d1d1d1"
     inkscape:document-units="mm"
     inkscape:zoom="0.70710678"
     inkscape:cx="548.00775"
     inkscape:cy="774.28192"
     inkscape:window-width="1366"
     inkscape:window-height="705"
     inkscape:window-x="-8"
     inkscape:window-y="-8"
     inkscape:window-maximized="1"
     inkscape:current-layer="layer1" /><defs
     id="defs1"><linearGradient
       id="linearGradient64"
       inkscape:collect="always"><stop
         style="stop-color:#f6e5d6;stop-opacity:1;"
         offset="0"
         id="stop64" /><stop
         style="stop-color:#dcaf9c;stop-opacity:1;"
         offset="1"
         id="stop65" /></linearGradient><linearGradient
       id="linearGradient62"
       inkscape:collect="always"><stop
         style="stop-color:#eadecb;stop-opacity:1;"
         offset="0"
         id="stop62" /><stop
         style="stop-color:#ac805e;stop-opacity:1;"
         offset="1"
         id="stop63" /></linearGradient><linearGradient
       id="linearGradient60"
       inkscape:collect="always"><stop
         style="stop-color:#aa7e5c;stop-opacity:1;"
         offset="0"
         id="stop60" /><stop
         style="stop-color:#dbc6ac;stop-opacity:1;"
         offset="1"
         id="stop61" /></linearGradient><linearGradient
       id="linearGradient58"
       inkscape:collect="always"><stop
         style="stop-color:#fbfaf8;stop-opacity:1;"
         offset="0"
         id="stop58" /><stop
         style="stop-color:#c9beac;stop-opacity:1;"
         offset="1"
         id="stop59" /></linearGradient><linearGradient
       id="linearGradient56"
       inkscape:collect="always"><stop
         style="stop-color:#f0e9e0;stop-opacity:1;"
         offset="0"
         id="stop56" /><stop
         style="stop-color:#b19773;stop-opacity:1;"
         offset="1"
         id="stop57" /></linearGradient><linearGradient
       id="linearGradient46"
       inkscape:collect="always"><stop
         style="stop-color:#f4f1e0;stop-opacity:1;"
         offset="0"
         id="stop47" /><stop
         style="stop-color:#e1cfba;stop-opacity:1;"
         offset="1"
         id="stop48" /></linearGradient><linearGradient
       id="linearGradient42"
       inkscape:collect="always"><stop
         style="stop-color:#f9f7f8;stop-opacity:1;"
         offset="0"
         id="stop41" /><stop
         style="stop-color:#afa392;stop-opacity:1;"
         offset="1"
         id="stop42" /></linearGradient><linearGradient
       id="linearGradient37"
       inkscape:collect="always"><stop
         style="stop-color:#deceb4;stop-opacity:1;"
         offset="0"
         id="stop38" /><stop
         style="stop-color:#deceb4;stop-opacity:0;"
         offset="1"
         id="stop39" /></linearGradient><linearGradient
       id="linearGradient32"
       inkscape:collect="always"><stop
         style="stop-color:#f4d3d0;stop-opacity:1;"
         offset="0"
         id="stop32" /><stop
         style="stop-color:#b88371;stop-opacity:1;"
         offset="1"
         id="stop33" /></linearGradient><linearGradient
       id="linearGradient30"
       inkscape:collect="always"><stop
         style="stop-color:#f7e9e8;stop-opacity:1;"
         offset="0"
         id="stop30" /><stop
         style="stop-color:#cb8576;stop-opacity:1;"
         offset="1"
         id="stop31" /></linearGradient><linearGradient
       id="linearGradient28"
       inkscape:collect="always"><stop
         style="stop-color:#f9f9f1;stop-opacity:1;"
         offset="0"
         id="stop28" /><stop
         style="stop-color:#a68a72;stop-opacity:1;"
         offset="1"
         id="stop29" /></linearGradient><linearGradient
       id="linearGradient26"
       inkscape:collect="always"><stop
         style="stop-color:#f2f4e9;stop-opacity:1;"
         offset="0"
         id="stop26" /><stop
         style="stop-color:#d7c6a9;stop-opacity:1;"
         offset="1"
         id="stop27" /></linearGradient><linearGradient
       id="linearGradient24"
       inkscape:collect="always"><stop
         style="stop-color:#f3eae0;stop-opacity:1;"
         offset="0"
         id="stop24" /><stop
         style="stop-color:#d4bba3;stop-opacity:1;"
         offset="1"
         id="stop25" /></linearGradient><linearGradient
       id="linearGradient22"
       inkscape:collect="always"><stop
         style="stop-color:#efe6d7;stop-opacity:1;"
         offset="0"
         id="stop22" /><stop
         style="stop-color:#ead7c1;stop-opacity:1;"
         offset="1"
         id="stop23" /></linearGradient><linearGradient
       id="linearGradient20"
       inkscape:collect="always"><stop
         style="stop-color:#f7f8f6;stop-opacity:1;"
         offset="0"
         id="stop20" /><stop
         style="stop-color:#ccbca2;stop-opacity:1;"
         offset="1"
         id="stop21" /></linearGradient><linearGradient
       id="linearGradient18"
       inkscape:collect="always"><stop
         style="stop-color:#f5f1e6;stop-opacity:1;"
         offset="0"
         id="stop18" /><stop
         style="stop-color:#c0ae92;stop-opacity:1;"
         offset="1"
         id="stop19" /></linearGradient><linearGradient
       id="linearGradient16"
       inkscape:collect="always"><stop
         style="stop-color:#feeddf;stop-opacity:1;"
         offset="0"
         id="stop16" /><stop
         style="stop-color:#e5ae9a;stop-opacity:1;"
         offset="1"
         id="stop17" /></linearGradient><linearGradient
       id="linearGradient14"
       inkscape:collect="always"><stop
         style="stop-color:#eeeade;stop-opacity:1;"
         offset="0"
         id="stop14" /><stop
         style="stop-color:#cdc9b5;stop-opacity:1;"
         offset="1"
         id="stop15" /></linearGradient><linearGradient
       id="linearGradient12"
       inkscape:collect="always"><stop
         style="stop-color:#f3f0e7;stop-opacity:1;"
         offset="0"
         id="stop12" /><stop
         style="stop-color:#d2c1a7;stop-opacity:1;"
         offset="1"
         id="stop13" /></linearGradient><linearGradient
       id="linearGradient10"
       inkscape:collect="always"><stop
         style="stop-color:#f5f4f4;stop-opacity:1;"
         offset="0"
         id="stop10" /><stop
         style="stop-color:#dfdbcf;stop-opacity:1;"
         offset="1"
         id="stop11" /></linearGradient><linearGradient
       id="linearGradient8"
       inkscape:collect="always"><stop
         style="stop-color:#f6e0d0;stop-opacity:1;"
         offset="0"
         id="stop8" /><stop
         style="stop-color:#b37358;stop-opacity:1;"
         offset="1"
         id="stop9" /></linearGradient><linearGradient
       id="linearGradient3"
       inkscape:collect="always"><stop
         style="stop-color:#f5dccd;stop-opacity:1;"
         offset="0"
         id="stop3" /><stop
         style="stop-color:#c99e85;stop-opacity:1;"
         offset="1"
         id="stop4" /></linearGradient><linearGradient
       id="linearGradient1"
       inkscape:collect="always"><stop
         style="stop-color:#f4fafd;stop-opacity:1;"
         offset="0"
         id="stop1" /><stop
         style="stop-color:#dfded9;stop-opacity:1;"
         offset="1"
         id="stop2" /></linearGradient><inkscape:perspective
       sodipodi:type="inkscape:persp3d"
       inkscape:vp_x="0 : 148.5 : 1"
       inkscape:vp_y="0 : 1000 : 0"
       inkscape:vp_z="210 : 148.5 : 1"
       inkscape:persp3d-origin="105 : 99 : 1"
       id="perspective5" /><linearGradient
       inkscape:collect="always"
       xlink:href="#linearGradient1"
       id="linearGradient2"
       x1="60.192942"
       y1="129.12052"
       x2="79.561018"
       y2="129.12052"
       gradientUnits="userSpaceOnUse"
       gradientTransform="translate(5.3052086,15.739238)" /><linearGradient
       inkscape:collect="always"
       xlink:href="#linearGradient3"
       id="linearGradient4"
       x1="87.53611"
       y1="137.80766"
       x2="101.15356"
       y2="137.80766"
       gradientUnits="userSpaceOnUse"
       gradientTransform="translate(-16.329947,11.392986)" /><linearGradient
       inkscape:collect="always"
       xlink:href="#linearGradient8"
       id="linearGradient9"
       x1="119.92473"
       y1="185.62161"
       x2="132.25361"
       y2="185.28932"
       gradientUnits="userSpaceOnUse"
       gradientTransform="translate(-49.007685,-26.719259)" /><linearGradient
       inkscape:collect="always"
       xlink:href="#linearGradient10"
       id="linearGradient11"
       x1="165.38818"
       y1="213.55269"
       x2="192.80832"
       y2="213.55269"
       gradientUnits="userSpaceOnUse"
       gradientTransform="translate(-118.40841,-28.371235)" /><linearGradient
       inkscape:collect="always"
       xlink:href="#linearGradient12"
       id="linearGradient13"
       x1="130.82946"
       y1="211.90954"
       x2="166.71737"
       y2="211.90954"
       gradientUnits="userSpaceOnUse"
       gradientTransform="translate(-71.775813,-30.00153)" /><linearGradient
       inkscape:collect="always"
       xlink:href="#linearGradient14"
       id="linearGradient15"
       x1="107.66372"
       y1="205.16869"
       x2="133.29794"
       y2="205.16869"
       gradientUnits="userSpaceOnUse"
       gradientTransform="translate(-26.203868,-20.127609)" /><linearGradient
       inkscape:collect="always"
       xlink:href="#linearGradient16"
       id="linearGradient17"
       x1="176.96474"
       y1="247.58952"
       x2="195.22514"
       y2="247.58952"
       gradientUnits="userSpaceOnUse"
       gradientTransform="translate(-106.07142,-38.400543)" /><linearGradient
       inkscape:collect="always"
       xlink:href="#linearGradient18"
       id="linearGradient19"
       x1="136.28164"
       y1="268.66953"
       x2="169.44575"
       y2="268.66953"
       gradientUnits="userSpaceOnUse"
       gradientTransform="translate(-82.386347,-33.259526)" /><linearGradient
       inkscape:collect="always"
       xlink:href="#linearGradient20"
       id="linearGradient21"
       x1="34.79038"
       y1="124.37789"
       x2="141.88732"
       y2="124.37789"
       gradientUnits="userSpaceOnUse" /><linearGradient
       inkscape:collect="always"
       xlink:href="#linearGradient22"
       id="linearGradient23"
       x1="235.50542"
       y1="311.16522"
       x2="252.15461"
       y2="311.16522"
       gradientUnits="userSpaceOnUse"
       gradientTransform="translate(-163.53797,-39.340416)" /><linearGradient
       inkscape:collect="always"
       xlink:href="#linearGradient24"
       id="linearGradient25"
       x1="252.82594"
       y1="312.84357"
       x2="268.13244"
       y2="312.84357"
       gradientUnits="userSpaceOnUse"
       gradientTransform="translate(-161.92676,-40.9977)" /><linearGradient
       inkscape:collect="always"
       xlink:href="#linearGradient26"
       id="linearGradient27"
       x1="167.29747"
       y1="263.56734"
       x2="193.07686"
       y2="263.56734"
       gradientUnits="userSpaceOnUse"
       gradientTransform="translate(-85.266693,-26.14426)" /><linearGradient
       inkscape:collect="always"
       xlink:href="#linearGradient28"
       id="linearGradient29"
       x1="265.34397"
       y1="145.403"
       x2="286.81842"
       y2="145.403"
       gradientUnits="userSpaceOnUse"
       gradientTransform="translate(-144.59598,-31.330712)" /><linearGradient
       inkscape:collect="always"
       xlink:href="#linearGradient30"
       id="linearGradient31"
       x1="278.27372"
       y1="144.0738"
       x2="291.94526"
       y2="144.0738"
       gradientUnits="userSpaceOnUse"
       gradientTransform="translate(-159.21698,-28.76729)" /><linearGradient
       inkscape:collect="always"
       xlink:href="#linearGradient32"
       id="linearGradient33"
       x1="276.37483"
       y1="138.61469"
       x2="285.58416"
       y2="138.61469"
       gradientUnits="userSpaceOnUse"
       gradientTransform="translate(-152.57107,-12.912051)" /><linearGradient
       inkscape:collect="always"
       xlink:href="#linearGradient42"
       id="linearGradient39"
       x1="254.91808"
       y1="192.68388"
       x2="295.26822"
       y2="192.68388"
       gradientUnits="userSpaceOnUse" /><linearGradient
       inkscape:collect="always"
       xlink:href="#linearGradient37"
       id="linearGradient41"
       gradientUnits="userSpaceOnUse"
       x1="254.91808"
       y1="192.68388"
       x2="295.26822"
       y2="192.68388" /><linearGradient
       inkscape:collect="always"
       xlink:href="#linearGradient46"
       id="linearGradient48"
       x1="337.70709"
       y1="176.68625"
       x2="377.96231"
       y2="176.68625"
       gradientUnits="userSpaceOnUse"
       gradientTransform="translate(-226.72043,-29.431881)" /><linearGradient
       inkscape:collect="always"
       xlink:href="#linearGradient56"
       id="linearGradient57"
       x1="274.5773"
       y1="163.80651"
       x2="298.74548"
       y2="163.80651"
       gradientUnits="userSpaceOnUse"
       gradientTransform="translate(-145.40969,2.3457889)" /><linearGradient
       inkscape:collect="always"
       xlink:href="#linearGradient58"
       id="linearGradient59"
       x1="266.21611"
       y1="184.47144"
       x2="277.98886"
       y2="184.47144"
       gradientUnits="userSpaceOnUse"
       gradientTransform="translate(-145.64035,-38.356387)" /><linearGradient
       inkscape:collect="always"
       xlink:href="#linearGradient60"
       id="linearGradient61"
       x1="180.00917"
       y1="239.63248"
       x2="198.61772"
       y2="239.63248"
       gradientUnits="userSpaceOnUse"
       gradientTransform="translate(-70.256749,-17.849012)" /><linearGradient
       inkscape:collect="always"
       xlink:href="#linearGradient62"
       id="linearGradient63"
       x1="167.09713"
       y1="230.70797"
       x2="188.36404"
       y2="230.70797"
       gradientUnits="userSpaceOnUse"
       gradientTransform="translate(-41.014751,-7.215558)" /><linearGradient
       inkscape:collect="always"
       xlink:href="#linearGradient64"
       id="linearGradient65"
       x1="168.59244"
       y1="219.05389"
       x2="176.54379"
       y2="218.86401"
       gradientUnits="userSpaceOnUse"
       gradientTransform="translate(-24.305037,-19.368077)" /></defs><g
     inkscape:label="Layer 1"
     inkscape:groupmode="layer"
     id="layer1"><g
       inkscape:label="Layer 1"
       id="layer1-8"
       transform="translate(12.057793,66.81293)"><path
         style="fill:url(#linearGradient21);stroke-width:0.264583"
         d="m 125.17474,46.240997 -0.56965,-3.607779 -0.75954,-2.278597 -1.4667,-1.098116 -1.82588,-1.095321 -3.27758,-0.902643 -3.11387,-0.701583 -2.2786,0.759533 -1.70895,0.949415 -1.1222,2.403479 -0.96651,0.634651 -0.94942,2.088713 V 43.9624 l 0.31476,2.658364 -0.13229,1.494544 -0.0331,0.833088 0.37121,2.609326 0.96652,0.981345 0.39573,1.544727 1.39534,1.312074 1.25447,0.718476 0.78406,0.570222 -0.37977,3.607779 h -0.94941 l -2.84825,0.379767 -2.65836,0.949415 -1.1393,0.569651 -2.08872,1.139298 -2.2786,1.89883 -2.65836,3.228012 -1.1393,2.2786 -0.94941,2.278594 -1.1393,3.60778 -1.51907,3.79766 -2.08871,2.84825 c 0,0 -1.494397,1.766399 -2.459923,2.36983 -1.488395,0.930212 -4.945517,1.8076 -4.945517,1.8076 l -5.88638,0.75953 -5.31672,0.37977 0.75953,-6.8358 v -3.22801 l -0.18988,-1.70895 -0.37977,-1.32918 -0.18988,-0.56965 0.56965,-1.51906 -0.37977,-1.519066 -0.56965,-0.949417 -1.70895,-0.949415 -2.65836,-0.949415 -3.4179,-0.189884 h -1.32918 l -1.89883,0.379767 -3.41789,1.519066 -1.89884,2.088714 -0.75953,1.89883 -0.37977,1.89883 v 1.32918 l -0.18988,1.1393 0.18988,1.51906 1.1393,2.08872 0.75954,1.70895 1.51906,1.51906 c 0,0 0.794406,0.680381 1.150821,1.061632 0.133679,0.142994 0.368249,0.457438 0.368249,0.457438 l -0.37977,5.31672 -5.88638,1.1393 -2.27859,1.1393 -3.03813,1.70895 -4.17743,2.84825 -2.08872,2.278588 -1.51906,2.46848 -3.03813,6.26615 -0.75953,3.03813 -1.1393,5.88637 v 7.97509 l 1.1393,4.17743 2.46848,4.5572 2.08871,1.89883 1.89883,1.70894 0.56965,0.75954 -0.37976,2.65836 -0.56965,3.22801 0.37976,3.60778 1.51907,3.03813 2.46848,3.22802 4.55719,2.84824 2.65837,0.94942 2.84824,0.94941 1.1393,0.94942 0.56965,1.1393 0.18988,34.36884 3.79767,0.18988 0.37976,0.37977 -0.94941,0.56965 -0.94942,1.70894 -0.56965,3.03814 0.450975,2.27859 0.522181,4.91323 1.25797,0.4035 1.898836,0.0237 12.389868,0.92567 -0.18988,-4.17742 -0.42724,-1.66148 -1.66148,-3.84513 -0.75953,-1.1393 -1.32918,-1.70895 -1.51906,-1.51907 4.36731,-0.18988 v -17.65913 l 0.37976,-21.45679 v -0.94941 c 0,0 1.399955,1.77885 1.51907,2.84824 0.483964,4.34494 0.457154,5.56571 0.569643,8.35485 0.386458,9.58217 0.807005,28.43501 0.807005,28.43501 l 3.750192,0.61711 -0.94941,1.32919 -1.32919,2.46848 -0.37976,2.27859 v 1.70895 l 0.18988,6.07626 14.288708,0.0949 -0.284825,-4.10623 -0.901953,-4.34357 -2.46848,-5.31673 3.79767,-0.18989 -0.37977,-40.06533 -1.70895,-6.45603 -1.1393,-1.32918 -2.65836,-2.08871 -3.60778,-1.51907 -2.46848,-0.56965 -5.12684,-0.94941 6.64591,-3.22801 4.55719,-2.84825 2.98663,-3.66288 2.14828,-4.02803 0.53707,-2.95389 v -3.49096 l -0.26853,-4.83363 -1.07414,-5.37071 -2.41682,-6.71338 -3.75949,-6.71338 -4.251417,-4.543332 7.823818,-0.220958 6.549678,-2.557126 1.693471,-1.003172 0.758828,-0.68949 -1.832968,46.340478 1.34267,0.80561 0.26854,71.96745 37.3264,0.26853 -1.07414,-71.96745 c 0,0 -1.91942,-2.04643 -1.20841,-2.75248 0.70143,-0.69654 1.71849,1.20503 2.70699,1.21108 0.64876,0.004 1.7862,-0.77303 1.7862,-0.77303 l -0.034,-3.48491 c 0,0 0.42853,-0.38407 0.70322,-1.34732 0.12064,-0.42306 -0.0364,-1.26428 0.4035,-1.25659 0.63916,0.0112 0.46217,2.50146 0.52218,1.84532 0.37774,-4.13041 0.3442,-4.48168 0.3442,-4.48168 l -0.39024,-1.85008 0.8056,-0.7049 c 0,0 0.81237,-23.26046 0.58027,-34.889628 -0.067,-3.359304 -0.56964,-10.06381 -0.56964,-10.06381 0,0 -0.57762,-3.718333 -1.1393,-5.50661 -0.33582,-1.06917 -1.3236,-3.090495 -1.3236,-3.090495 l -0.76512,-2.22623 -1.89883,-2.658364 -3.03813,-3.038128 -2.65836,-1.519066 -8.92451,-3.417895 -0.33928,-4.220774 2.428,2.13206 h 3.41789 l 2.08872,-1.329181 0.80857,-1.758559 0.90037,-2.798638 v -2.088713 l -0.43793,-1.345145 -0.98248,-0.891826 -1.1969,-0.693385 -0.42081,-0.297656 z"
         id="path4"
         sodipodi:nodetypes="cccccccccccccccccccccccccccccccccccaccccccccccccccccccccccccccaccccccccccccccccccccccccccccccccccccccccccccccccsscccccccccccccccccccccccccccccccccccccccaaccsascccacacccccccccccccccccc" /><path
         style="fill:#deceb4;stroke-width:0.264583"
         d="m -19.937726,68.357916 -0.949415,7.785208 5.50661,0.949415 z"
         id="path5" /><path
         style="fill:#deceb4;stroke-width:0.264583"
         d="M -46.188063,9.6672692 -36.520794,53.70705"
         id="path6" /><path
         style="fill:#deceb4;stroke-width:0.264583"
         d="M 32.224231,243.29294 -249.20072,220.19891 Z"
         id="path7" /></g><path
       style="fill:url(#linearGradient9);stroke-width:0.264583"
       d="m 71.228976,152.52802 -0.430613,6.02716 c 0,0 0.180084,0.74188 0.333286,1.08933 0.398445,0.90364 0.901997,1.77031 1.507136,2.55078 0.2327,0.30012 0.529762,0.54458 0.8056,0.80561 0.269516,0.25505 0.516289,0.54334 0.829345,0.74255 0.526405,0.33496 1.116157,0.58416 1.721745,0.73439 0.523078,0.12976 1.074535,0.18354 1.61121,0.13427 0.508157,-0.0466 1.018535,-0.1786 1.47694,-0.4028 0.603073,-0.29495 1.090911,-0.78417 1.61121,-1.20841 0.706461,-0.57604 2.047585,-1.81261 2.047585,-1.81261 l 0.357544,-4.60432 c 0,0 -2.218053,0.46419 -3.344999,0.50915 -0.627677,0.025 -1.258529,-0.041 -1.87974,-0.13426 -0.590498,-0.0887 -1.193814,-0.1743 -1.74548,-0.40281 -0.780173,-0.32316 -1.484206,-0.82104 -2.14829,-1.34267 -1.008023,-0.79178 -2.752479,-2.68536 -2.752479,-2.68536 z"
       id="path8"
       sodipodi:nodetypes="ccaaaaaaaaccaaaac" /><path
       style="fill:#deceb4;stroke-width:0.264583"
       d="M 293.50903,132.38788 Z"
       id="path27" /><g
       id="g34"
       transform="translate(-27.912816,19.178194)"
       style="fill:url(#linearGradient39)"><path
         style="fill:url(#linearGradient41);fill-opacity:1;stroke-width:0.264583"
         d="m 286.43865,232.51186 4.36732,0.18988 1.1393,-0.85447 0.75954,-0.94942 0.28482,-1.23424 0.18989,-58.19917 2.0887,-18.79842 z"
         id="path34"
         sodipodi:nodetypes="cccccccc" /></g><g
       id="g1"><g
         id="g12"><path
           style="fill:url(#linearGradient2);stroke-width:0.264583"
           d="m 70.624995,154.16402 c -0.648488,-0.30374 -1.049878,-0.97809 -1.519065,-1.51907 -0.414705,-0.47816 -0.781364,-0.99705 -1.139299,-1.51906 -0.337676,-0.49247 -0.65733,-0.99827 -0.949415,-1.51907 -0.276922,-0.49377 -0.533242,-1.00013 -0.759531,-1.51906 -0.216163,-0.49571 -0.449148,-0.99188 -0.569651,-1.51907 -0.155781,-0.68153 -0.158203,-1.39032 -0.189883,-2.08871 -0.02008,-0.4426 -0.07097,-0.89184 0,-1.32918 0.09618,-0.59271 0.339863,-1.15419 0.56965,-1.70895 0.162484,-0.39227 0.369301,-0.76495 0.569648,-1.1393 0.240787,-0.44991 0.468483,-0.91003 0.759534,-1.32918 0.281954,-0.40605 0.581712,-0.80889 0.949415,-1.1393 0.509243,-0.4576 1.093932,-0.8385 1.708949,-1.1393 0.539405,-0.26381 1.134249,-0.39565 1.708947,-0.56965 0.690701,-0.20913 1.373432,-0.47386 2.088713,-0.56965 0.815546,-0.10922 1.645654,0 2.468481,0 0.506355,0 1.015174,-0.0499 1.519065,0 0.963506,0.0954 1.920169,0.29376 2.848248,0.56965 0.32672,0.0971 0.638477,0.24014 0.949415,0.37977 0.516439,0.23192 1.0422,0.45442 1.519065,0.75953 0.341383,0.21843 0.675532,0.4608 0.949415,0.75953 0.308443,0.33643 0.627267,0.70246 0.759531,1.1393 0.146734,0.48463 0.135164,1.03109 0,1.51907 -0.09852,0.35567 -0.308679,0.68844 -0.569647,0.94941 -0.260969,0.26097 -0.596788,0.46073 -0.949415,0.56965 -1.029855,0.31811 -2.15016,0.18515 -3.228015,0.18989 -1.267457,0.006 -2.534613,-0.0841 -3.797662,-0.18989 -1.079647,-0.0904 -2.407634,-1.08743 -3.228012,-0.37977 -0.493202,0.42544 0.01364,1.30585 -0.05891,1.95314 -0.116528,1.03968 -0.396634,2.05446 -0.602227,3.08024 -0.112742,0.56252 -0.220034,1.12627 -0.346198,1.68593 -0.07927,0.35162 -0.161951,0.7027 -0.258007,1.05011 -0.133451,0.48266 -0.323058,0.94938 -0.441923,1.43584 -0.08433,0.34511 -0.142895,0.69652 -0.191569,1.04843 -0.09736,0.70388 0.346259,1.66834 -0.200415,2.12229 -0.09508,0.079 -0.257315,0.0189 -0.369232,-0.0336 z"
           id="path1"
           sodipodi:nodetypes="aaaaaaaaaaaaaaaaaaaaaaaaaaaaaaaaaaaaa" /><path
           style="fill:url(#linearGradient4);stroke-width:0.264583"
           d="m 84.085103,141.82594 0.53707,1.87975 0.16784,1.14128 0.0336,1.14127 -0.0336,1.40981 -0.0336,1.54408 c 0,0 -0.03871,0.60471 -0.0671,0.90631 -0.03694,0.39243 -0.101295,0.78206 -0.13427,1.17484 -0.04359,0.51921 -0.02738,1.0429 -0.08393,1.56086 -0.09956,0.91183 -0.187321,1.8357 -0.448686,2.71493 -0.0062,0.021 -0.01254,0.042 -0.01895,0.063 -0.08575,0.28165 -0.188319,0.56563 -0.361375,0.80228 -0.173889,0.23779 -0.407828,0.43726 -0.663195,0.58413 -0.347012,0.19957 -1.139298,0.37977 -1.139298,0.37977 h -3.987544 l -3.228014,-0.94942 -3.417896,-1.89883 0.09494,-2.2786 0.379765,-1.70894 0.56965,-2.2786 0.759532,-3.79766 0.09494,-1.32918 -0.189884,-0.85448 0.379765,-0.56965 0.56965,-0.18988 0.569648,0.18988 2.2786,0.85448 0.949415,0.18988 0.949415,0.0949 h 2.183656 1.234239 z"
           id="path2"
           sodipodi:nodetypes="ccccccaaasssaccccccccccccccccccc" /><path
           style="fill:url(#linearGradient11);stroke-width:0.264583"
           d="m 70.793824,158.86502 c 0,0 -4.4529,0.69305 -6.534675,1.50754 -1.900873,0.74371 -3.632912,1.88436 -5.31673,3.03813 -1.076398,0.73756 -2.085497,1.57679 -3.03813,2.46848 -0.882832,0.82636 -1.751044,1.68495 -2.46848,2.65837 -0.73118,0.99207 -1.244956,2.12753 -1.843218,3.20498 -0.891851,1.6062 -1.932626,3.14769 -2.602747,4.8583 -0.79719,2.03498 -1.263473,4.19429 -1.653338,6.3448 -0.281844,1.55466 -0.393745,3.13749 -0.490995,4.7145 -0.09533,1.54581 -0.151059,2.76756 -0.09017,4.64538 0.04135,1.27524 0.306762,2.85262 0.703917,4.22351 0.450787,1.556 1.042623,3.0962 1.887309,4.47854 0.963526,1.57683 2.174239,3.02825 3.563679,4.24654 1.159064,1.01629 2.50224,1.83557 3.900607,2.48429 1.913361,0.88764 4.01368,1.30129 6.042037,1.87976 2.312266,0.65943 6.981925,1.81261 6.981925,1.81261 l 2.95388,0.26853 c 0,0 -1.636554,-1.42562 -1.87974,-2.41681 -0.238464,-0.97195 0.159863,-2.02693 0.53707,-2.95389 0.447553,-1.09983 1.172905,-2.09325 1.990976,-2.95389 0.235586,-0.24784 0.835915,-0.27413 0.820502,-0.61573 -0.05915,-1.31083 -2.208151,-1.42055 -3.348548,-2.06962 -1.974668,-1.1239 -4.075578,-2.0171 -6.042042,-3.15529 -1.079912,-0.62506 -2.304245,-1.10154 -3.155292,-2.01402 -1.37283,-1.47193 -2.390291,-3.35299 -2.886756,-5.30357 -0.198709,-0.78072 -0.06374,-1.61374 0,-2.41682 0.167681,-2.11279 0.367309,-4.25682 1.002934,-6.27869 2.516225,-8.00391 10.966025,-22.65593 10.966025,-22.65593 z"
           id="path9"
           sodipodi:nodetypes="caaaaaaaasaaaaaccaaasaaaaaac" /><path
           style="fill:url(#linearGradient13);stroke-width:0.264583"
           d="m 70.826403,158.90842 c -6.621019,0.0217 -6.401023,11.60461 -9.185596,17.61165 -0.449213,0.96907 -0.874978,1.95287 -1.210503,2.96693 -0.179632,0.5429 -0.29991,1.10399 -0.427238,1.66148 -0.287446,1.25855 -0.632331,2.51299 -0.75954,3.79766 -0.09355,0.94479 0,2.84824 0,2.84824 0,0 -0.252755,1.51903 -0.18988,2.2786 0.06116,0.73883 0.289939,1.46034 0.546617,2.15584 0.244418,0.66229 0.57652,1.2924 0.937889,1.89884 0.376117,0.63119 0.732533,1.30198 1.273567,1.79912 1.319945,1.21286 3.056363,1.87786 4.635856,2.72549 1.696719,0.91054 3.541806,1.86915 5.180414,3.01121 0.644874,0.44946 1.460318,0.80235 1.817442,1.50259 0.03736,0.0733 -0.04531,0.19096 0.0156,0.24619 0.850367,0.77106 2.307004,-0.2927 3.441625,-0.11867 1.011609,0.15516 1.911348,0.74055 2.895721,1.02062 0.416878,0.11861 0.846257,0.3683 1.270188,0.27808 0.466012,-0.0992 0.748571,-0.59238 1.150821,-0.84772 0.554298,-0.35185 1.172191,-0.59485 1.731983,-0.9379 0.693737,-0.42513 1.339175,-0.92446 2.010065,-1.3848 0.903495,-0.61995 1.826133,-1.21258 2.713982,-1.85473 1.097567,-0.79383 2.26393,-1.51697 3.22801,-2.46848 0.802067,-0.79161 1.598683,-1.64356 2.08871,-2.65837 0.594132,-1.2304 0.790096,-2.63052 0.94942,-3.98754 0.206655,-1.76015 0.146176,-3.55053 0,-5.31673 -0.09527,-1.15108 -0.290438,-2.29714 -0.56965,-3.4179 -0.427603,-1.7164 -0.951163,-3.42253 -1.685215,-5.03189 -2.665173,-5.84323 -5.91613,-21.72394 -9.784741,-16.5975 -0.181407,0.24038 -0.520141,0.97409 -0.838877,1.42313 -0.236987,0.33387 -0.48814,0.66473 -0.793107,0.9379 -0.744922,0.66727 -1.56418,1.2951 -2.489538,1.6744 -0.708809,0.29054 -1.494395,0.47905 -2.258519,0.42485 -0.661583,-0.0469 -1.309118,-0.3093 -1.883942,-0.64017 -0.553349,-0.3185 -1.021884,-0.77946 -1.443792,-1.25866 -0.730689,-0.82991 -1.278372,-1.80723 -1.845599,-2.7564 -0.190688,-0.31908 -0.150453,-0.98657 -0.522173,-0.98536 z"
           id="path11"
           sodipodi:nodetypes="aaaaacaaaasaaaaaaaaaaaaaaaasaaaaaaaa" /><path
           style="fill:url(#linearGradient15);stroke-width:0.264583"
           d="m 84.687862,206.97258 -3.22801,-1.32918 c 0,0 0.744203,-1.39413 1.32918,-1.89883 0.535798,-0.46227 1.297392,-0.57653 1.89883,-0.94942 1.692127,-1.04911 3.125191,-2.47268 4.768138,-3.59725 0.408562,-0.27965 0.873472,-0.47603 1.263044,-0.78158 0.878302,-0.68888 1.740691,-1.43766 2.389824,-2.34573 0.616886,-0.86295 1.062124,-1.85648 1.374269,-2.87029 0.342431,-1.11218 0.454801,-2.28986 0.524561,-3.45147 0.07949,-1.32359 -0.102286,-2.65021 -0.122746,-3.97603 -0.0043,-0.27552 0.01362,-0.55144 0,-0.82666 -0.02976,-0.60158 -0.07013,-1.20562 -0.178368,-1.79813 -0.07483,-0.40963 -0.204282,-0.80765 -0.324148,-1.20643 -0.233839,-0.77796 -0.459289,-1.56162 -0.770064,-2.31217 -0.324868,-0.78458 -0.746038,-1.52596 -1.1393,-2.27859 -0.36728,-0.70291 -0.750705,-1.39737 -1.1393,-2.08872 -2.723515,-4.84542 -6.527135,-9.18182 -8.35485,-14.43111 -0.107801,-0.30961 -0.144952,-0.64533 -0.142419,-0.97316 0.0023,-0.29655 -0.02737,-0.63506 0.142416,-0.8782 0.16631,-0.23816 0.759533,-0.42724 0.759533,-0.42724 0,0 4.543092,1.531 6.64591,2.65836 1.290335,0.69177 2.443063,1.61705 3.615759,2.49357 1.045614,0.78154 2.139039,1.52281 3.045196,2.46248 1.76823,1.83364 3.234433,3.95374 4.586243,6.11279 1.08435,1.73187 2.02274,3.56298 2.80415,5.45099 0.63535,1.53512 1.1283,3.13229 1.51906,4.74708 0.18111,0.74841 0.24957,1.51968 0.37977,2.2786 0.18476,1.0769 0.42197,2.14541 0.56965,3.22801 0.13322,0.9766 0.25699,1.95794 0.28482,2.94319 0.0224,0.7915 0.0223,1.59046 -0.0949,2.37354 -0.18417,1.22982 -0.51079,2.44417 -0.94942,3.60778 -0.64899,1.72164 -1.47686,3.38715 -2.46848,4.93696 -0.65528,1.02415 -1.40332,2.00434 -2.27859,2.84824 -1.00773,0.97162 -2.181011,1.76776 -3.37281,2.50205 -1.721034,1.06036 -3.593384,1.85419 -5.41743,2.7255 -1.17282,0.56023 -3.552158,1.60825 -3.552158,1.60825 z"
           id="path13"
           sodipodi:nodetypes="ccaaaaaaaaaaaaaaaaacaaaaaaaaaaaaaaacc" /><path
           style="fill:url(#linearGradient17);stroke-width:0.264583"
           d="m 73.914329,203.34832 c -0.960345,0.32761 -1.772895,1.13661 -2.282547,2.01402 -0.60841,1.04742 -0.920957,2.36061 -0.738471,3.55809 0.138838,0.91106 0.734689,1.67029 1.34267,2.41681 0.07994,0.0982 -0.26853,0.26854 -0.26853,0.26854 0,0 4.726903,2.3424 7.284017,2.85319 1.56937,0.31348 4.800063,0.1007 4.800063,0.1007 0,0 1.390143,-1.01924 2.011926,-1.61261 0.538402,-0.5138 1.463967,-0.93085 1.476248,-1.67497 0.03016,-1.82769 -2.088286,-3.05597 -3.488174,-4.23141 -1.772817,-1.48858 -3.824136,-2.76074 -6.042032,-3.42383 -1.310665,-0.39185 -2.800443,-0.7102 -4.09517,-0.26853 z"
           id="path15"
           sodipodi:nodetypes="aaascacaaaaa" /><path
           style="fill:url(#linearGradient19);stroke-width:0.264583"
           d="m 54.835173,206.811 c 0,0 -0.558517,1.67904 -0.67134,2.55108 -0.02871,0.22193 0.01586,0.44812 0,0.67134 -0.04487,0.63135 -0.22367,1.2484 -0.26854,1.87975 -0.0349,0.49107 0,0.98463 0,1.47694 0,0.58183 -0.03889,1.16495 0,1.74548 0.05006,0.74733 0.07253,1.51322 0.299716,2.22694 0.282197,0.88655 0.7774,1.69946 1.295209,2.47243 0.344152,0.51374 0.763874,0.97526 1.192116,1.42133 0.73259,0.76309 1.507825,1.49183 2.346308,2.13676 0.982102,0.7554 2.035439,1.42246 3.124115,2.01401 0.862474,0.46864 1.77224,0.84825 2.685347,1.20842 0.967713,0.3817 2.01027,0.5691 2.953888,1.007 0.591805,0.27463 1.349535,0.4435 1.678349,1.00701 0.20114,0.3447 0.02297,0.79787 0.03118,1.19688 0.229778,11.16935 0.561342,23.03886 0.505894,33.51131 -0.0021,0.39944 0.291573,1.16233 0.291573,1.16233 l 17.401963,0.5534 c 0,0 0.100007,-0.95262 0.117982,-1.43086 0.500078,-13.30469 1.215142,-26.71192 -0.284824,-39.94125 -0.09297,-0.82 -0.224359,-1.6531 -0.53707,-2.41682 -0.479977,-1.17222 -1.195398,-2.25581 -2.01402,-3.22242 -0.626319,-0.73954 -1.393252,-1.35726 -2.178063,-1.92583 -0.620754,-0.44971 -1.302726,-0.81144 -1.984237,-1.16233 -0.510419,-0.2628 -1.042345,-0.48215 -1.571882,-0.70392 -0.50884,-0.2131 -1.02139,-0.41845 -1.541685,-0.60181 -0.543306,-0.19148 -1.103853,-0.33117 -1.648155,-0.5198 -0.548051,-0.18992 -1.079938,-0.4244 -1.627505,-0.61572 -0.738675,-0.25809 -1.48665,-0.48915 -2.235079,-0.71741 -1.460221,-0.44536 -2.92712,-0.86937 -4.399648,-1.27217 -1.382111,-0.37807 -2.784316,-0.6813 -4.162301,-1.07414 -1.442995,-0.41138 -2.859365,-0.91147 -4.29656,-1.34267 -1.495893,-0.44882 -4.502733,-1.29521 -4.502733,-1.29521 z"
           id="path17"
           sodipodi:nodetypes="caaaaaaaaaaaaaasccaaaaaaaaaaaaaacc" /><path
           style="fill:url(#linearGradient23);stroke-width:0.264583"
           d="m 82.854272,264.902 c 0,-0.0786 -8.470007,-0.26051 -8.470007,-0.26051 0,0 -1.046669,1.09911 -1.398293,1.76108 -0.459743,0.86552 -0.698081,1.84181 -0.884257,2.80401 -0.110854,0.57292 -0.117288,1.16218 -0.13427,1.74548 -0.02444,0.83953 0.0385,1.67938 0.04677,2.51922 0.01754,1.78138 0.006,5.3444 0.006,5.3444 l 4.750338,0.0507 11.846035,0.14171 c 0,0 0.05279,-2.55044 -0.102391,-3.81209 -0.08769,-0.71289 -0.25423,-1.41745 -0.465864,-2.10382 -0.38258,-1.2408 -0.907429,-2.4355 -1.445763,-3.61708 -0.305466,-0.67046 -0.600589,-1.35357 -1.010385,-1.96586 -0.416589,-0.62244 -0.908597,-1.20016 -1.455876,-1.7115 -0.352203,-0.32907 -1.096034,-0.83637 -1.162454,-0.86007 -0.03496,-0.0125 -0.119583,-0.0357 -0.119583,-0.0357 z"
           id="path21"
           sodipodi:nodetypes="scaaaacccaaaaasss" /><path
           style="fill:url(#linearGradient25);stroke-width:0.264583"
           d="m 102.2177,264.87955 -8.32531,0.0156 c 0,0 -0.489919,0.26507 -0.694363,0.45027 -0.297155,0.26919 -0.53943,0.59908 -0.750699,0.93986 -0.292487,0.47178 -0.488934,0.99745 -0.703218,1.50952 -0.157185,0.37562 -0.314649,0.75315 -0.426535,1.14466 -0.171304,0.59942 -0.309403,1.21266 -0.371624,1.83296 -0.260636,2.5984 7.02e-4,7.83431 7.02e-4,7.83431 l 15.069147,0.0868 c 0,0 0.068,-2.20093 -0.0393,-3.29363 -0.12665,-1.28981 -0.36793,-2.57267 -0.71066,-3.82255 -0.37818,-1.37918 -0.86565,-2.73517 -1.47696,-4.02802 -0.4414,-0.9335 -1.57117,-2.66977 -1.57117,-2.66977 z"
           id="path23"
           sodipodi:nodetypes="ccaaaaaccaaac" /><path
           style="fill:url(#linearGradient27);stroke-width:0.264583"
           d="m 89.794562,211.54948 c -1.383746,-0.0268 -2.552631,1.07985 -3.870028,1.50404 -2.012227,0.64792 -8.240499,1.33601 -6.141053,1.58341 0.485861,0.0572 1.680753,0.48671 2.416821,0.93988 1.02549,0.63135 1.929467,1.47933 2.68535,2.41682 0.792701,0.98315 1.276216,2.18018 1.879744,3.28955 0.349158,0.6418 0.755491,1.2609 1.007007,1.94688 0.279421,0.76208 0.355537,1.58403 0.54452,2.37342 0.212892,0.88926 0.534869,1.75638 0.663886,2.66162 1.723826,12.09511 1.417954,36.62456 1.417954,36.62456 l 17.067597,-0.13159 c 0,0 0.33295,-27.46266 0.0752,-41.43307 -0.0288,-1.56299 -0.40348,-3.15301 -1.07413,-4.5651 -0.62983,-1.32614 -1.54801,-2.56265 -2.68536,-3.49096 -1.24141,-1.01324 -2.81678,-1.55403 -4.320308,-2.10825 -1.67094,-0.61593 -3.41441,-1.05541 -5.173357,-1.33384 -1.482346,-0.23464 -2.939725,-0.24725 -4.493853,-0.27737 z"
           id="path25"
           sodipodi:nodetypes="sasaaaaaaccsaaaass" /></g><path
         style="fill:url(#linearGradient29);stroke-width:0.264583"
         d="m 120.73145,106.98913 2.7019,3.52403 0.85237,0.82899 2.37004,1.58782 1.87976,1.07414 1.61121,0.80561 0.77766,0.6392 0.75954,0.94942 0.47472,0.85447 0.25254,1.39935 -0.0365,0.6412 0.001,0.61782 -0.017,0.46889 -0.0105,0.29064 v 0.75953 l 0.56965,1.89883 0.37975,0.47471 0.75954,0.47471 c 0,0 0.62898,0.15132 0.94941,0.18988 0.42384,0.051 0.85308,0.0727 1.27957,0.0539 0.68952,-0.0303 1.38364,-0.1004 2.05309,-0.26829 0.22233,-0.0557 0.44061,-0.13597 0.6432,-0.24319 0.53357,-0.28241 1.06173,-0.60753 1.48228,-1.04065 0.38105,-0.39244 0.65751,-0.8814 0.90294,-1.37025 0.20824,-0.41478 0.34499,-0.86331 0.47472,-1.30893 0.16311,-0.56028 0.31608,-1.12889 0.37975,-1.70895 0.0518,-0.47188 0.0314,-0.95046 0,-1.42413 -0.0317,-0.47786 -0.0681,-0.96095 -0.18989,-1.42412 -0.10706,-0.40724 -0.23494,-0.8233 -0.47043,-1.17237 -0.24655,-0.36547 -0.59195,-0.66434 -0.95369,-0.91634 -0.37014,-0.25785 -0.78738,-0.4551 -1.21769,-0.59047 -0.3416,-0.10745 -0.70347,-0.14725 -1.0609,-0.16907 -0.30507,-0.0186 -0.91633,0.0331 -0.91633,0.0331 h -0.20214 c 0,0 -0.0706,-0.97203 -0.11576,-1.45719 -0.0624,-0.66978 -0.0562,-1.3528 -0.21442,-2.00661 -0.18081,-0.74735 -0.4397,-1.48986 -0.8305,-2.15206 -0.22223,-0.37657 -0.53168,-0.698 -0.84305,-1.005 -0.3088,-0.30448 -0.667,-0.55462 -1.00846,-0.82197 -0.38991,-0.30528 -0.76449,-0.63518 -1.18745,-0.89274 -0.45751,-0.27859 -0.94409,-0.51489 -1.4475,-0.69793 -0.63365,-0.23039 -1.29669,-0.38006 -1.96073,-0.4969 -0.57467,-0.10112 -1.15854,-0.15608 -1.74173,-0.17502 -0.62626,-0.0203 -1.25839,-0.023 -1.87861,0.0661 -0.51168,0.0735 -1.01464,0.21315 -1.50251,0.38405 -0.33187,0.11625 -0.6494,0.27198 -0.96168,0.43365 -0.28926,0.14976 -0.56877,0.31854 -0.84222,0.49553 -0.19965,0.12922 -0.40019,0.2594 -0.5819,0.41283 -0.27357,0.231 -0.551,0.46849 -0.75954,0.75954 -0.26498,0.36983 -0.60351,1.2242 -0.60351,1.2242 z"
         id="path28"
         sodipodi:nodetypes="ccccccccccccccccccaaaaaaaaaaaaaaccaaaaaaaaaaaaaaacc" /><path
         style="fill:url(#linearGradient31);stroke-width:0.264583"
         d="m 120.86061,107.09407 c 0.45541,-0.0345 0.68969,0.60167 0.99897,0.93773 0.25932,0.28176 0.49216,0.58783 0.71417,0.89984 0.23578,0.33139 0.41842,0.69854 0.65427,1.02988 0.24013,0.33737 0.49248,0.66786 0.77265,0.9728 0.29294,0.31884 0.61303,0.61324 0.94521,0.89095 0.27135,0.22685 0.55576,0.43937 0.85309,0.63091 0.27356,0.17623 0.55635,0.34106 0.85305,0.47471 0.30593,0.1378 0.63041,0.23041 0.94943,0.33438 0.31414,0.10238 0.64228,0.16303 0.94941,0.28483 0.32891,0.13044 0.65705,0.27544 0.94943,0.47471 0.35182,0.23978 0.65721,0.54479 0.9494,0.85447 0.27814,0.29478 0.5137,0.62722 0.75954,0.94942 0.26111,0.34221 0.54873,0.66906 0.75954,1.04435 0.20148,0.3587 0.47469,1.1393 0.47469,1.1393 l -0.0192,2.23793 -0.83527,0.61032 c 0,0 -1.13043,0.77319 -1.70895,1.1393 -0.31186,0.19736 -0.62861,0.38717 -0.9494,0.56965 -0.40616,0.23103 -1.23426,0.66459 -1.23426,0.66459 l -1.32918,0.28482 h -1.51906 l -1.04436,-0.37976 c 0,0 -0.7283,-0.35112 -1.06913,-0.56686 -0.22486,-0.14233 -0.43857,-0.30338 -0.63981,-0.4775 -0.20307,-0.17571 -0.38875,-0.37119 -0.56965,-0.56965 -0.28393,-0.31148 -0.55993,-0.63185 -0.8077,-0.97281 -0.25601,-0.3523 -0.49146,-0.72097 -0.69827,-1.10422 -0.15056,-0.279 -0.28688,-0.56737 -0.39287,-0.86616 -0.18323,-0.51653 -0.321,-1.0509 -0.41624,-1.59062 -0.0953,-0.53985 -0.12778,-1.0898 -0.15337,-1.63739 -0.0532,-1.13806 -0.0378,-2.27923 0,-3.4179 0.018,-0.54279 0.0205,-1.0897 0.10804,-1.62569 0.0574,-0.35129 0.15376,-0.69684 0.27171,-1.03267 0.10329,-0.29408 0.21898,-0.58747 0.37979,-0.85448 0.29071,-0.48267 0.48248,-1.28666 1.04433,-1.32918 z"
         id="path29"
         sodipodi:nodetypes="aaaaaaaaaaaaaacccaaccccaaaaaaaaaaaaa" /><path
         style="fill:url(#linearGradient33);stroke-width:0.264583"
         d="m 132.43789,120.19321 0.4803,6.6487 0.0949,0.75953 -0.28483,0.94942 -0.56964,0.66459 -0.85448,0.94941 -0.85447,0.56966 -0.75954,0.37976 -0.47471,0.18988 -0.94941,0.095 -0.94943,-0.095 -0.85447,-0.28482 -0.9494,-0.75953 -0.56965,-0.56965 -0.56965,-0.85448 -0.37978,-1.04435 -0.18987,-0.66459 v -0.28483 l 0.5574,-3.48775 c 0,0 0.64668,0.12271 0.97393,0.15253 0.15356,0.014 0.30842,0.0198 0.46244,0.0122 0.25484,-0.0125 0.51071,-0.0385 0.75954,-0.0949 0.39039,-0.0885 0.76512,-0.2375 1.1393,-0.37976 0.45057,-0.1713 0.89999,-0.3502 1.32918,-0.56965 0.4929,-0.25203 0.9615,-0.55042 1.42412,-0.85448 0.68169,-0.44805 1.98822,-1.42691 1.98822,-1.42691 z"
         id="path31"
         sodipodi:nodetypes="cccccccccccccccccccaaaaaacc" /><path
         style="fill:url(#linearGradient48);stroke-width:0.264583"
         d="m 151.82653,106.81624 c 0,0 -1.34715,0.28086 -2.00877,0.46772 -0.67417,0.1904 -1.33801,0.41819 -1.99379,0.66459 -0.99586,0.37418 -1.98622,0.76951 -2.94318,1.23424 -0.58618,0.28467 -1.15645,0.60386 -1.70894,0.94941 -0.65504,0.40968 -1.29751,0.84407 -1.89883,1.32918 -0.90634,0.73119 -1.82925,1.46961 -2.56342,2.37354 -0.5817,0.7162 -0.98327,1.56302 -1.42415,2.37354 -0.52135,0.95847 -1.02856,1.92886 -1.4412,2.93891 -0.40091,0.98134 -0.66858,2.01198 -0.99968,3.01902 -0.25482,0.77505 -0.48897,1.55707 -0.75954,2.32677 -0.3208,0.91259 -0.60218,1.8448 -1.02377,2.71543 -0.308,0.63607 -0.69791,1.2307 -1.09253,1.81698 -0.35342,0.52508 -0.72488,1.04065 -1.13929,1.51906 -0.53956,0.62289 -1.12708,1.20619 -1.746,1.75029 -0.38984,0.34271 -0.78535,0.68884 -1.23426,0.94942 -0.43595,0.25306 -0.92042,0.41393 -1.39508,0.58357 -0.32729,0.11698 -0.66015,0.22136 -0.99904,0.29848 -4.42589,1.00724 -7.85413,1.39273 -13.44922,2.13201 -0.17711,0.0234 -0.22324,0.41342 -0.36677,0.61432 -0.32835,0.4596 -0.65242,0.55518 -0.65242,0.55518 l 1e-5,0.61712 -0.14241,1.82763 2.33026,0.17033 2.13269,0.57524 1.65519,0.61642 c 0,0 1.35077,0.80496 2.02018,1.21726 0.66212,0.40782 1.3022,0.85168 1.97435,1.24275 0.5128,0.29836 1.0018,0.6658 1.56863,0.84095 0.69153,0.21369 1.43523,0.21814 2.15888,0.23251 0.95093,0.0189 1.90209,-0.0828 2.84685,-0.19267 0.91569,-0.10647 1.82702,-0.25859 2.72851,-0.45133 0.60803,-0.12999 1.21489,-0.27555 1.8039,-0.47471 0.77947,-0.26356 1.53802,-0.59081 2.27859,-0.94941 0.58651,-0.284 1.15102,-0.61271 1.70895,-0.94942 0.93025,-0.56141 2.72853,-1.78329 2.72853,-1.78329 l -1.49431,46.1182 0.095,0.28483 3.41789,0.66459 9.96886,-0.18989"
         id="path33"
         sodipodi:nodetypes="caaaaaaaaaaaaaaaaassccccccaaaaaaaaaccccc"
         transform="translate(-27.912817,19.178194)" /><path
         style="fill:url(#linearGradient57);stroke-width:0.264583"
         d="m 132.91031,126.35873 -0.63778,2.65178 -0.72168,2.98746 -0.52029,2.28255 -0.46993,2.55109 -0.46993,4.58188 -0.21818,2.9371 -0.0839,2.55108 -0.28532,6.61269 -0.33566,14.11488 0.13425,35.04385 0.13428,1.61122 0.13426,1.27554 2.1483,0.33567 14.63516,-0.33568 0.20139,0.20141 0.50184,-0.85238 c 0,0 -0.70096,-0.54637 -0.97175,-0.8931 -0.43911,-0.56226 -0.77026,-1.21272 -1.0233,-1.87974 -0.13272,-0.34985 -0.1835,-0.72601 -0.25226,-1.09381 -0.0828,-0.44289 -0.17765,-0.88759 -0.19257,-1.3379 -0.0131,-0.39471 0.13288,-0.69372 0.0908,-1.1813 -0.0315,-0.36534 -0.007,-0.74519 0.0746,-1.10533 0.13403,-0.59119 0.56181,-1.09377 0.67203,-1.68986 0.11554,-0.62484 -0.0244,-1.90615 -0.0244,-1.90615 0,0 -0.17717,0.62892 0.0225,0.64619 2.17404,0.18811 7.73193,-0.0354 7.73193,-0.0354 0,0 0.2162,-15.89963 0.15105,-23.84929 -0.0161,-1.9697 -0.11189,-3.93813 -0.13427,-5.90777 -0.0224,-1.96913 0.0592,-3.93941 0,-5.90778 -0.11194,-3.71979 -0.2688,-7.44458 -0.67136,-11.14421 -0.0931,-0.85585 -0.24416,-1.70493 -0.4028,-2.55109 -0.19412,-1.03539 -0.37531,-2.07717 -0.67133,-3.08815 -0.46957,-1.60369 -0.98599,-3.21092 -1.74548,-4.69937 -0.58675,-1.14991 -1.31878,-2.23323 -2.14828,-3.22242 -0.87431,-1.04263 -1.87793,-1.98354 -2.94992,-2.8216 -1.02303,-0.79977 -2.11913,-1.52592 -3.29253,-2.08213 -2.6697,-1.26549 -8.40947,-2.79993 -8.40947,-2.79993 z"
         id="path55"
         sodipodi:nodetypes="cccccccccccccccccaaaasaacscaaaaaaaaaac" /><path
         style="fill:url(#linearGradient59);stroke-width:0.264583"
         d="m 123.93518,125.86327 c 0,0 -0.75135,1.71026 -1.06537,2.58907 -0.42604,1.19235 -0.86471,2.39076 -1.10798,3.63335 -0.26863,1.37217 -0.27769,2.78294 -0.37978,4.17742 -0.16663,2.27602 -0.26775,4.55643 -0.37976,6.83579 -0.11543,2.349 -0.23816,4.69808 -0.30122,7.04907 -0.0643,2.39667 -0.0403,4.79494 -0.0785,7.19217 -0.0467,2.92647 -0.17198,6.22946 -0.1843,8.7786 -0.0143,2.95122 8.7299,1.04872 8.7299,1.04872 l 0.17786,-7.0248 0.12459,-5.89231 0.20177,-5.3286 0.11851,-3.11358 0.48573,-6.95327 0.58115,-3.88685 0.48047,-2.21047 0.70919,-2.96047 0.33619,-1.12653 c 0,0 -1.65607,1.00514 -2.55318,1.35772 -0.51771,0.20347 -1.05745,0.3941 -1.61259,0.42934 -0.48241,0.0306 -0.97929,-0.0382 -1.43724,-0.19294 -0.27184,-0.0918 -0.50793,-0.26886 -0.74781,-0.42629 -0.26458,-0.17365 -0.52878,-0.35307 -0.75954,-0.56964 -0.3362,-0.31553 -0.66562,-0.65376 -0.89837,-1.05177 -0.11778,-0.20141 -0.18683,-0.43022 -0.24093,-0.65718 -0.13203,-0.55387 -0.19875,-1.69655 -0.19875,-1.69655 z"
         id="path57"
         sodipodi:nodetypes="caaaaaasccccccccccaaaaaaac" /><path
         style="fill:url(#linearGradient61);stroke-width:0.264583"
         d="m 120.43264,166.0046 7.92833,1.09253 -1.89884,31.5206 -0.37976,29.62176 1.70895,50.12915 -17.84902,4e-5 -0.18988,-73.29488 c 0,0 3.66167,0.74684 5.52057,0.86426 1.19607,0.0755 2.41044,0.0847 3.59383,-0.10472 0.68209,-0.10918 1.98677,-0.58922 1.98677,-0.58922 z"
         id="path59"
         sodipodi:nodetypes="cccccccaacc" /><path
         style="fill:url(#linearGradient63);stroke-width:0.264583"
         d="m 128.45593,166.76484 c 0,0 -1.6591,22.77207 -2.04125,34.17896 -0.28929,8.63507 -0.24675,17.27931 -0.18989,25.91904 0.0508,7.72337 0.47472,23.16574 0.47472,23.16574 l 0.14239,28.48247 21.17198,-0.0475 -0.47471,-30.14395 c 0,0 -0.0519,-24.88261 -0.53031,-41.48658 -0.11171,-3.87672 2.01741,-1.17577 -2.40519,-1.23375 -2.32962,-0.0305 -15.24581,-0.52555 -15.24581,-0.52555"
         id="path61"
         sodipodi:nodetypes="caaccccssc" /><path
         style="fill:url(#linearGradient65);stroke-width:0.264583"
         d="m 144.64345,194.51149 c 2.7435,-0.0238 7.68432,-0.0712 7.68432,-0.0712 0,0 -0.29538,4.17114 -0.52812,6.24834 -0.0385,0.34343 -0.0781,0.68742 -0.14347,1.02676 -0.0451,0.23398 -0.0779,0.47472 -0.17101,0.69406 -0.46904,1.10534 -0.8657,2.4692 -1.91663,3.04999 -0.77557,0.42862 -1.87887,0.42141 -2.65838,0 -0.88627,-0.47911 -1.24007,-1.61093 -1.65537,-2.52884 -0.48014,-1.0612 -0.81249,-2.20898 -0.93263,-3.36754 -0.17403,-1.67824 -0.23198,-5.04673 0.32129,-5.05153 z"
         id="path63"
         sodipodi:nodetypes="scaaaaaaass" /></g></g></svg>
