<?xml version="1.0" encoding="UTF-8" standalone="no"?>
<!-- Created with Inkscape (http://www.inkscape.org/) -->

<svg
   width="210mm"
   height="297mm"
   viewBox="0 0 210 297"
   version="1.1"
   id="svg1"
   xml:space="preserve"
   inkscape:version="1.4 (86a8ad7, 2024-10-11)"
   sodipodi:docname="elder2.svg"
   xmlns:inkscape="http://www.inkscape.org/namespaces/inkscape"
   xmlns:sodipodi="http://sodipodi.sourceforge.net/DTD/sodipodi-0.dtd"
   xmlns:xlink="http://www.w3.org/1999/xlink"
   xmlns="http://www.w3.org/2000/svg"
   xmlns:svg="http://www.w3.org/2000/svg"><sodipodi:namedview
     id="namedview1"
     pagecolor="#ffffff"
     bordercolor="#000000"
     borderopacity="0.25"
     inkscape:showpageshadow="2"
     inkscape:pageopacity="0.0"
     inkscape:pagecheckerboard="0"
     inkscape:deskcolor="#d1d1d1"
     inkscape:document-units="mm"
     inkscape:zoom="0.70710678"
     inkscape:cx="307.59145"
     inkscape:cy="825.19362"
     inkscape:window-width="1360"
     inkscape:window-height="705"
     inkscape:window-x="1358"
     inkscape:window-y="-8"
     inkscape:window-maximized="1"
     inkscape:current-layer="g1"
     showgrid="false" /><defs
     id="defs1"><linearGradient
       id="linearGradient64"
       inkscape:collect="always"><stop
         style="stop-color:#f6e5d6;stop-opacity:1;"
         offset="0"
         id="stop64" /><stop
         style="stop-color:#dcaf9c;stop-opacity:1;"
         offset="1"
         id="stop65" /></linearGradient><linearGradient
       id="linearGradient62"
       inkscape:collect="always"><stop
         style="stop-color:#eadecb;stop-opacity:1;"
         offset="0"
         id="stop62" /><stop
         style="stop-color:#ac805e;stop-opacity:1;"
         offset="1"
         id="stop63" /></linearGradient><linearGradient
       id="linearGradient60"
       inkscape:collect="always"><stop
         style="stop-color:#aa7e5c;stop-opacity:1;"
         offset="0"
         id="stop60" /><stop
         style="stop-color:#dbc6ac;stop-opacity:1;"
         offset="1"
         id="stop61" /></linearGradient><linearGradient
       id="linearGradient58"
       inkscape:collect="always"><stop
         style="stop-color:#fbfaf8;stop-opacity:1;"
         offset="0"
         id="stop58" /><stop
         style="stop-color:#c9beac;stop-opacity:1;"
         offset="1"
         id="stop59" /></linearGradient><linearGradient
       id="linearGradient56"
       inkscape:collect="always"><stop
         style="stop-color:#f0e9e0;stop-opacity:1;"
         offset="0"
         id="stop56" /><stop
         style="stop-color:#b19773;stop-opacity:1;"
         offset="1"
         id="stop57" /></linearGradient><linearGradient
       id="linearGradient46"
       inkscape:collect="always"><stop
         style="stop-color:#f4f1e0;stop-opacity:1;"
         offset="0"
         id="stop47" /><stop
         style="stop-color:#e1cfba;stop-opacity:1;"
         offset="1"
         id="stop48" /></linearGradient><linearGradient
       id="linearGradient42"
       inkscape:collect="always"><stop
         style="stop-color:#f9f7f8;stop-opacity:1;"
         offset="0"
         id="stop41" /><stop
         style="stop-color:#afa392;stop-opacity:1;"
         offset="1"
         id="stop42" /></linearGradient><linearGradient
       id="linearGradient37"
       inkscape:collect="always"><stop
         style="stop-color:#deceb4;stop-opacity:1;"
         offset="0"
         id="stop38" /><stop
         style="stop-color:#deceb4;stop-opacity:0;"
         offset="1"
         id="stop39" /></linearGradient><linearGradient
       id="linearGradient32"
       inkscape:collect="always"><stop
         style="stop-color:#f4d3d0;stop-opacity:1;"
         offset="0"
         id="stop32" /><stop
         style="stop-color:#b88371;stop-opacity:1;"
         offset="1"
         id="stop33" /></linearGradient><linearGradient
       id="linearGradient30"
       inkscape:collect="always"><stop
         style="stop-color:#f7e9e8;stop-opacity:1;"
         offset="0"
         id="stop30" /><stop
         style="stop-color:#cb8576;stop-opacity:1;"
         offset="1"
         id="stop31" /></linearGradient><linearGradient
       id="linearGradient28"
       inkscape:collect="always"><stop
         style="stop-color:#f9f9f1;stop-opacity:1;"
         offset="0"
         id="stop28" /><stop
         style="stop-color:#a68a72;stop-opacity:1;"
         offset="1"
         id="stop29" /></linearGradient><linearGradient
       id="linearGradient26"
       inkscape:collect="always"><stop
         style="stop-color:#f2f4e9;stop-opacity:1;"
         offset="0"
         id="stop26" /><stop
         style="stop-color:#d7c6a9;stop-opacity:1;"
         offset="1"
         id="stop27" /></linearGradient><linearGradient
       id="linearGradient24"
       inkscape:collect="always"><stop
         style="stop-color:#f3eae0;stop-opacity:1;"
         offset="0"
         id="stop24" /><stop
         style="stop-color:#d4bba3;stop-opacity:1;"
         offset="1"
         id="stop25" /></linearGradient><linearGradient
       id="linearGradient22"
       inkscape:collect="always"><stop
         style="stop-color:#efe6d7;stop-opacity:1;"
         offset="0"
         id="stop22" /><stop
         style="stop-color:#ead7c1;stop-opacity:1;"
         offset="1"
         id="stop23" /></linearGradient><linearGradient
       id="linearGradient18"
       inkscape:collect="always"><stop
         style="stop-color:#f5f1e6;stop-opacity:1;"
         offset="0"
         id="stop18" /><stop
         style="stop-color:#c0ae92;stop-opacity:1;"
         offset="1"
         id="stop19" /></linearGradient><linearGradient
       id="linearGradient16"
       inkscape:collect="always"><stop
         style="stop-color:#feeddf;stop-opacity:1;"
         offset="0"
         id="stop16" /><stop
         style="stop-color:#e5ae9a;stop-opacity:1;"
         offset="1"
         id="stop17" /></linearGradient><linearGradient
       id="linearGradient14"
       inkscape:collect="always"><stop
         style="stop-color:#eeeade;stop-opacity:1;"
         offset="0"
         id="stop14" /><stop
         style="stop-color:#cdc9b5;stop-opacity:1;"
         offset="1"
         id="stop15" /></linearGradient><linearGradient
       id="linearGradient12"
       inkscape:collect="always"><stop
         style="stop-color:#f3f0e7;stop-opacity:1;"
         offset="0"
         id="stop12" /><stop
         style="stop-color:#d2c1a7;stop-opacity:1;"
         offset="1"
         id="stop13" /></linearGradient><linearGradient
       id="linearGradient10"
       inkscape:collect="always"><stop
         style="stop-color:#f5f4f4;stop-opacity:1;"
         offset="0"
         id="stop10" /><stop
         style="stop-color:#dfdbcf;stop-opacity:1;"
         offset="1"
         id="stop11" /></linearGradient><linearGradient
       id="linearGradient8"
       inkscape:collect="always"><stop
         style="stop-color:#f6e0d0;stop-opacity:1;"
         offset="0"
         id="stop8" /><stop
         style="stop-color:#b37358;stop-opacity:1;"
         offset="1"
         id="stop9" /></linearGradient><linearGradient
       id="linearGradient3"
       inkscape:collect="always"><stop
         style="stop-color:#f5dccd;stop-opacity:1;"
         offset="0"
         id="stop3" /><stop
         style="stop-color:#c99e85;stop-opacity:1;"
         offset="1"
         id="stop4" /></linearGradient><linearGradient
       id="linearGradient1"
       inkscape:collect="always"><stop
         style="stop-color:#f4fafd;stop-opacity:1;"
         offset="0"
         id="stop1" /><stop
         style="stop-color:#dfded9;stop-opacity:1;"
         offset="1"
         id="stop2" /></linearGradient><inkscape:perspective
       sodipodi:type="inkscape:persp3d"
       inkscape:vp_x="0 : 148.5 : 1"
       inkscape:vp_y="0 : 1000 : 0"
       inkscape:vp_z="210 : 148.5 : 1"
       inkscape:persp3d-origin="105 : 99 : 1"
       id="perspective5" /><linearGradient
       inkscape:collect="always"
       xlink:href="#linearGradient1"
       id="linearGradient2"
       x1="60.192942"
       y1="129.12052"
       x2="79.561018"
       y2="129.12052"
       gradientUnits="userSpaceOnUse"
       gradientTransform="translate(5.3052086,15.739238)" /><linearGradient
       inkscape:collect="always"
       xlink:href="#linearGradient3"
       id="linearGradient4"
       x1="87.53611"
       y1="137.80766"
       x2="101.15356"
       y2="137.80766"
       gradientUnits="userSpaceOnUse"
       gradientTransform="translate(-16.329947,11.392986)" /><linearGradient
       inkscape:collect="always"
       xlink:href="#linearGradient8"
       id="linearGradient9"
       x1="119.92473"
       y1="185.62161"
       x2="132.25361"
       y2="185.28932"
       gradientUnits="userSpaceOnUse"
       gradientTransform="translate(-56.397687,-8.3845694)" /><linearGradient
       inkscape:collect="always"
       xlink:href="#linearGradient10"
       id="linearGradient11"
       x1="165.38818"
       y1="213.55269"
       x2="192.80832"
       y2="213.55269"
       gradientUnits="userSpaceOnUse"
       gradientTransform="translate(-118.40841,-28.371235)" /><linearGradient
       inkscape:collect="always"
       xlink:href="#linearGradient12"
       id="linearGradient13"
       x1="130.82946"
       y1="211.90954"
       x2="166.71737"
       y2="211.90954"
       gradientUnits="userSpaceOnUse"
       gradientTransform="translate(-71.775813,-30.00153)" /><linearGradient
       inkscape:collect="always"
       xlink:href="#linearGradient14"
       id="linearGradient15"
       x1="107.66372"
       y1="205.16869"
       x2="133.29794"
       y2="205.16869"
       gradientUnits="userSpaceOnUse"
       gradientTransform="translate(-26.203868,-20.127609)" /><linearGradient
       inkscape:collect="always"
       xlink:href="#linearGradient16"
       id="linearGradient17"
       x1="176.96474"
       y1="247.58952"
       x2="195.22514"
       y2="247.58952"
       gradientUnits="userSpaceOnUse"
       gradientTransform="translate(-106.07142,-38.400543)" /><linearGradient
       inkscape:collect="always"
       xlink:href="#linearGradient18"
       id="linearGradient19"
       x1="136.28164"
       y1="268.66953"
       x2="169.44575"
       y2="268.66953"
       gradientUnits="userSpaceOnUse"
       gradientTransform="translate(-82.386347,-33.259526)" /><linearGradient
       inkscape:collect="always"
       xlink:href="#linearGradient22"
       id="linearGradient23"
       x1="235.50542"
       y1="311.16522"
       x2="252.15461"
       y2="311.16522"
       gradientUnits="userSpaceOnUse"
       gradientTransform="translate(-163.53797,-39.340416)" /><linearGradient
       inkscape:collect="always"
       xlink:href="#linearGradient24"
       id="linearGradient25"
       x1="252.82594"
       y1="312.84357"
       x2="268.13244"
       y2="312.84357"
       gradientUnits="userSpaceOnUse"
       gradientTransform="translate(-161.92676,-40.9977)" /><linearGradient
       inkscape:collect="always"
       xlink:href="#linearGradient26"
       id="linearGradient27"
       x1="167.29747"
       y1="263.56734"
       x2="193.07686"
       y2="263.56734"
       gradientUnits="userSpaceOnUse"
       gradientTransform="translate(-85.266693,-26.14426)" /><linearGradient
       inkscape:collect="always"
       xlink:href="#linearGradient28"
       id="linearGradient29"
       x1="265.34397"
       y1="145.403"
       x2="286.81842"
       y2="145.403"
       gradientUnits="userSpaceOnUse"
       gradientTransform="translate(-144.59598,-31.330712)" /><linearGradient
       inkscape:collect="always"
       xlink:href="#linearGradient30"
       id="linearGradient31"
       x1="278.27372"
       y1="144.0738"
       x2="291.94526"
       y2="144.0738"
       gradientUnits="userSpaceOnUse"
       gradientTransform="translate(-159.21698,-28.76729)" /><linearGradient
       inkscape:collect="always"
       xlink:href="#linearGradient32"
       id="linearGradient33"
       x1="276.37483"
       y1="138.61469"
       x2="285.58416"
       y2="138.61469"
       gradientUnits="userSpaceOnUse"
       gradientTransform="translate(-152.57107,-12.912051)" /><linearGradient
       inkscape:collect="always"
       xlink:href="#linearGradient42"
       id="linearGradient39"
       x1="254.91808"
       y1="192.68388"
       x2="295.26822"
       y2="192.68388"
       gradientUnits="userSpaceOnUse" /><linearGradient
       inkscape:collect="always"
       xlink:href="#linearGradient37"
       id="linearGradient41"
       gradientUnits="userSpaceOnUse"
       x1="254.91808"
       y1="192.68388"
       x2="295.26822"
       y2="192.68388" /><linearGradient
       inkscape:collect="always"
       xlink:href="#linearGradient46"
       id="linearGradient48"
       x1="337.70709"
       y1="176.68625"
       x2="377.96231"
       y2="176.68625"
       gradientUnits="userSpaceOnUse"
       gradientTransform="translate(-226.72043,-29.431881)" /><linearGradient
       inkscape:collect="always"
       xlink:href="#linearGradient56"
       id="linearGradient57"
       x1="274.5773"
       y1="163.80651"
       x2="298.74548"
       y2="163.80651"
       gradientUnits="userSpaceOnUse"
       gradientTransform="translate(-145.40969,2.3457889)" /><linearGradient
       inkscape:collect="always"
       xlink:href="#linearGradient58"
       id="linearGradient59"
       x1="266.21611"
       y1="184.47144"
       x2="277.98886"
       y2="184.47144"
       gradientUnits="userSpaceOnUse"
       gradientTransform="translate(-145.64035,-38.356387)" /><linearGradient
       inkscape:collect="always"
       xlink:href="#linearGradient60"
       id="linearGradient61"
       x1="180.00917"
       y1="239.63248"
       x2="198.61772"
       y2="239.63248"
       gradientUnits="userSpaceOnUse"
       gradientTransform="translate(-70.256749,-17.849012)" /><linearGradient
       inkscape:collect="always"
       xlink:href="#linearGradient62"
       id="linearGradient63"
       x1="167.09713"
       y1="230.70797"
       x2="188.36404"
       y2="230.70797"
       gradientUnits="userSpaceOnUse"
       gradientTransform="translate(-41.014751,-7.215558)" /><linearGradient
       inkscape:collect="always"
       xlink:href="#linearGradient64"
       id="linearGradient65"
       x1="168.59244"
       y1="219.05389"
       x2="176.54379"
       y2="218.86401"
       gradientUnits="userSpaceOnUse"
       gradientTransform="translate(-24.305037,-19.368077)" /><filter
       style="color-interpolation-filters:sRGB;"
       inkscape:label="Drop Shadow"
       id="filter9"
       x="-0.1508187"
       y="-0.091464132"
       width="1.3794854"
       height="1.227864"><feFlood
         result="flood"
         in="SourceGraphic"
         flood-opacity="0.498039"
         flood-color="rgb(0,0,0)"
         id="feFlood8" /><feGaussianBlur
         result="blur"
         in="SourceGraphic"
         stdDeviation="6.700000"
         id="feGaussianBlur8" /><feOffset
         result="offset"
         in="blur"
         dx="8.300000"
         dy="7.900000"
         id="feOffset8" /><feComposite
         result="comp1"
         operator="in"
         in="flood"
         in2="offset"
         id="feComposite8" /><feComposite
         result="comp2"
         operator="over"
         in="SourceGraphic"
         in2="comp1"
         id="feComposite9" /></filter></defs><g
     inkscape:label="Layer 1"
     inkscape:groupmode="layer"
     id="layer1"><path
       style="fill:#deceb4;stroke-width:0.264583"
       d="M 293.50903,132.38788 Z"
       id="path27" /><g
       id="g34"
       transform="translate(-27.912816,19.178194)"
       style="fill:url(#linearGradient39)"><path
         style="fill:url(#linearGradient41);fill-opacity:1;stroke-width:0.264583"
         d="m 286.43865,232.51186 4.36732,0.18988 1.1393,-0.85447 0.75954,-0.94942 0.28482,-1.23424 0.18989,-58.19917 2.0887,-18.79842 z"
         id="path34"
         sodipodi:nodetypes="cccccccc" /></g><g
       id="g1"
       transform="translate(-39.28862,16.463803)"><g
         id="g12" /><g
         id="g2"
         transform="translate(-2.6192414,2.6192414)"
         style="filter:url(#filter9)"><g
           id="g3"><path
             style="fill:url(#linearGradient9);stroke-width:0.264583"
             d="m 63.838974,170.8627 -0.430613,6.02716 c 0,0 0.180084,0.74188 0.333286,1.08933 0.398445,0.90364 0.901997,1.77031 1.507136,2.55078 0.2327,0.30012 0.529762,0.54458 0.8056,0.80561 0.269516,0.25505 0.516289,0.54334 0.829345,0.74255 0.526405,0.33496 1.116157,0.58416 1.721745,0.73439 0.523078,0.12976 1.074535,0.18354 1.61121,0.13427 0.508157,-0.0466 1.018535,-0.1786 1.47694,-0.4028 0.603073,-0.29495 1.090911,-0.78417 1.61121,-1.20841 0.706461,-0.57604 2.047585,-1.81261 2.047585,-1.81261 l 0.357544,-4.60432 c 0,0 -2.218053,0.46419 -3.344999,0.50915 -0.627677,0.025 -1.258529,-0.041 -1.87974,-0.13426 -0.590498,-0.0887 -1.193814,-0.1743 -1.74548,-0.40281 -0.780173,-0.32316 -1.484206,-0.82104 -2.14829,-1.34267 -1.008023,-0.79178 -2.752479,-2.68536 -2.752479,-2.68536 z"
             id="path8"
             sodipodi:nodetypes="ccaaaaaaaaccaaaac"
             transform="translate(7.4835468,-18.33469)" /><path
             style="fill:url(#linearGradient2);stroke-width:0.264583"
             d="m 70.624995,154.16402 c -0.648488,-0.30374 -1.049878,-0.97809 -1.519065,-1.51907 -0.414705,-0.47816 -0.781364,-0.99705 -1.139299,-1.51906 -0.337676,-0.49247 -0.65733,-0.99827 -0.949415,-1.51907 -0.276922,-0.49377 -0.533242,-1.00013 -0.759531,-1.51906 -0.216163,-0.49571 -0.449148,-0.99188 -0.569651,-1.51907 -0.155781,-0.68153 -0.158203,-1.39032 -0.189883,-2.08871 -0.02008,-0.4426 -0.07097,-0.89184 0,-1.32918 0.09618,-0.59271 0.339863,-1.15419 0.56965,-1.70895 0.162484,-0.39227 0.369301,-0.76495 0.569648,-1.1393 0.240787,-0.44991 0.468483,-0.91003 0.759534,-1.32918 0.281954,-0.40605 0.597885,-0.79173 0.949415,-1.1393 0.502174,-0.49651 1.037583,-0.97385 1.642803,-1.33774 0.540134,-0.32475 1.131056,-0.58031 1.74202,-0.73501 0.688844,-0.17442 1.412034,-0.1715 2.121786,-0.20585 0.821865,-0.0398 1.645654,0 2.468481,0 0.506355,0 1.015174,-0.0499 1.519065,0 0.963506,0.0954 1.920169,0.29376 2.848248,0.56965 0.32672,0.0971 0.638477,0.24014 0.949415,0.37977 0.516439,0.23192 1.0422,0.45442 1.519065,0.75953 0.341383,0.21843 0.675532,0.4608 0.949415,0.75953 0.308443,0.33643 0.627267,0.70246 0.759531,1.1393 0.146734,0.48463 0.135164,1.03109 0,1.51907 -0.09852,0.35567 -0.308679,0.68844 -0.569647,0.94941 -0.260969,0.26097 -0.598455,0.45547 -0.949415,0.56965 -0.900383,0.29293 -1.732285,0.327 -2.688973,0.32618 -0.268997,-2.4e-4 -0.669692,-0.003 -0.935917,-0.004 -1.138666,-0.003 -2.268481,-0.20195 -3.400787,-0.32218 -1.077369,-0.11439 -2.407634,-1.08743 -3.228012,-0.37977 -0.493202,0.42544 0.01364,1.30585 -0.05891,1.95314 -0.116528,1.03968 -0.396634,2.05446 -0.602227,3.08024 -0.112742,0.56252 -0.220034,1.12627 -0.346198,1.68593 -0.07927,0.35162 -0.161951,0.7027 -0.258007,1.05011 -0.133451,0.48266 -0.323058,0.94938 -0.441923,1.43584 -0.08433,0.34511 -0.160991,0.69449 -0.191569,1.04843 -0.06771,0.78372 0.0051,1.57844 0.01976,2.35982 0.0023,0.12361 -0.32798,-0.12485 -0.589394,-0.27113 -9e-6,0 0,3e-5 0,3e-5 z"
             id="path1"
             sodipodi:nodetypes="aaaaaaaaaaaaaaaaaaaaaaaasssaaaaaaaassaa" /><path
             style="fill:url(#linearGradient4);stroke-width:0.264583"
             d="m 84.085103,141.82594 0.53707,1.87975 0.16784,1.14128 0.0336,1.14127 -0.0336,1.40981 -0.0336,1.54408 c 0,0 -0.03871,0.60471 -0.0671,0.90631 -0.03694,0.39243 -0.101295,0.78206 -0.13427,1.17484 -0.04359,0.51921 -0.02738,1.0429 -0.08393,1.56086 -0.09956,0.91183 -0.187321,1.8357 -0.448686,2.71493 -0.0062,0.021 -0.01254,0.042 -0.01895,0.063 -0.08575,0.28165 -0.188319,0.56563 -0.361375,0.80228 -0.173889,0.23779 -0.407828,0.43726 -0.663195,0.58413 -0.347012,0.19957 -1.139298,0.37977 -1.139298,0.37977 h -3.987544 l -3.228014,-0.94942 -3.417896,-1.82867 c 0,0 -0.09359,-1.56776 -0.03735,-2.34876 0.04224,-0.58663 0.157667,-1.16684 0.280547,-1.74201 0.171412,-0.80235 0.456308,-1.57724 0.635795,-2.37782 0.269216,-1.2008 0.476744,-2.41546 0.660314,-3.6323 0.06367,-0.42204 0.123513,-0.84549 0.152817,-1.2713 0.02164,-0.31445 -0.0772,-0.64459 0.01682,-0.94543 0.06807,-0.21782 0.180887,-0.45772 0.379765,-0.56965 0.179224,-0.10087 0.411905,-0.0478 0.616422,-0.0262 0.251109,0.0266 0.490988,0.11902 0.733351,0.18988 0.473424,0.13843 0.928298,0.33903 1.406667,0.45927 0.409543,0.10294 0.829405,0.16069 1.247071,0.22295 0.447023,0.0666 0.894894,0.13841 1.34629,0.16105 0.583939,0.0293 1.170138,0.003 1.753708,-0.0331 0.423933,-0.0261 0.847325,-0.069 1.267312,-0.13235 0.812907,-0.12258 2.419419,-0.47855 2.419419,-0.47855 z"
             id="path2"
             sodipodi:nodetypes="ccccccaaasssaccccaaaaaaaaaaaaaacc" /><path
             style="fill:url(#linearGradient11);stroke-width:0.264583"
             d="m 70.793824,158.86502 c 0,0 -4.4529,0.69305 -6.534675,1.50754 -1.900873,0.74371 -3.632912,1.88436 -5.31673,3.03813 -1.076398,0.73756 -2.085497,1.57679 -3.03813,2.46848 -0.882832,0.82636 -1.751044,1.68495 -2.46848,2.65837 -0.73118,0.99207 -1.244956,2.12753 -1.843218,3.20498 -0.891851,1.6062 -1.932626,3.14769 -2.602747,4.8583 -0.79719,2.03498 -1.263473,4.19429 -1.653338,6.3448 -0.281844,1.55466 -0.393745,3.13749 -0.490995,4.7145 -0.09533,1.54581 -0.151059,2.76756 -0.09017,4.64538 0.04135,1.27524 0.306762,2.85262 0.703917,4.22351 0.450787,1.556 1.042623,3.0962 1.887309,4.47854 0.963526,1.57683 2.174239,3.02825 3.563679,4.24654 1.159064,1.01629 2.50224,1.83557 3.900607,2.48429 1.913361,0.88764 4.01368,1.30129 6.042037,1.87976 2.312266,0.65943 6.981925,1.81261 6.981925,1.81261 l 2.887734,0.53311 c 0,0 -1.172323,-1.43847 -1.681302,-2.61524 -0.403206,-0.93222 -0.02344,-2.09904 0.404778,-3.02004 0.485384,-1.04394 1.677506,-1.60286 2.321705,-2.55701 0.209803,-0.31075 0.505186,-0.67101 0.489773,-1.01261 -0.05915,-1.31083 -2.208151,-1.42055 -3.348548,-2.06962 -1.974668,-1.1239 -4.075578,-2.0171 -6.042042,-3.15529 -1.079912,-0.62506 -2.304587,-1.10122 -3.155292,-2.01402 -1.262845,-1.35502 -2.123294,-3.10769 -2.652895,-4.88262 -0.271377,-0.90951 -0.270002,-1.88933 -0.233861,-2.83777 0.0807,-2.11789 0.367309,-4.25682 1.002934,-6.27869 2.516225,-8.00391 10.966025,-22.65593 10.966025,-22.65593 z"
             id="path9"
             sodipodi:nodetypes="caaaaaaaasaaaaaccsaasaaaaaac" /><path
             style="fill:url(#linearGradient13);stroke-width:0.264583"
             d="m 70.826403,158.90842 c 0,0.002 -0.498759,0.42671 -1.056263,1.10138 -0.768675,0.93021 -1.886491,2.5192 -3.522087,5.43136 -0.951598,1.6943 -3.175398,7.99005 -4.607246,11.07891 -0.449214,0.96907 -0.846864,1.96261 -1.210503,2.96693 -0.247942,0.68478 -0.457092,1.3833 -0.661099,2.08243 -0.326298,1.11822 -0.520683,1.93009 -0.899856,3.37671 -0.311683,1.18913 -0.374178,3.31596 -0.374178,3.31596 0,0 0.121247,1.22061 0.277842,1.81088 0.19737,0.74397 0.518613,1.45073 0.82725,2.15584 0.283071,0.64671 0.57652,1.2924 0.937889,1.89884 0.376117,0.63119 0.732533,1.30198 1.273567,1.79912 1.319945,1.21286 3.056363,1.87786 4.635856,2.72549 1.696719,0.91054 3.541806,1.86915 5.180414,3.01121 0.644874,0.44946 1.460318,0.80235 1.817442,1.50259 0.03736,0.0733 -0.04424,0.1898 0.0156,0.24619 0.842944,0.79434 2.354083,-0.2792 3.474698,0.0136 1.086742,0.28398 2.035438,0.60634 2.928794,1.05369 0.485201,0.24297 0.815627,0.22054 1.204042,0.11272 0.459088,-0.12744 0.748571,-0.59238 1.150821,-0.84772 0.554298,-0.35185 1.172191,-0.59485 1.731983,-0.9379 0.693737,-0.42513 1.335982,-0.92915 2.010065,-1.3848 0.910273,-0.6153 1.855974,-1.17888 2.747055,-1.82166 1.096967,-0.79129 2.237705,-1.54594 3.194937,-2.50155 0.797531,-0.79618 1.569498,-1.65818 2.08871,-2.65837 0.706903,-1.36175 1.158676,-2.88308 1.323597,-4.40849 0.175927,-1.6272 -0.177085,-3.271 -0.374177,-4.89578 -0.139089,-1.14661 -0.290438,-2.29714 -0.56965,-3.4179 -0.427603,-1.7164 -0.951163,-3.42253 -1.685215,-5.03189 -2.665173,-5.84323 -5.91613,-21.72394 -9.784741,-16.5975 -0.181407,0.24038 -0.520141,0.97409 -0.838877,1.42313 -0.236987,0.33387 -0.48814,0.66473 -0.793107,0.9379 -0.744922,0.66727 -1.56418,1.2951 -2.489538,1.6744 -0.708809,0.29054 -1.494395,0.47905 -2.258519,0.42485 -0.661583,-0.0469 -1.309118,-0.3093 -1.883942,-0.64017 -0.553349,-0.3185 -1.021884,-0.77946 -1.443792,-1.25866 -0.730689,-0.82991 -1.278372,-1.80723 -1.845599,-2.7564 -0.190688,-0.31908 -0.150453,-0.98657 -0.522173,-0.98536 z"
             id="path11"
             sodipodi:nodetypes="ssssaascaaaasaaassaaaaaaaaaaasaaaaaaaas" /><path
             style="fill:url(#linearGradient15);stroke-width:0.264583"
             d="m 84.55557,207.40253 -4.418635,-2.68517 c 0,0 1.541823,-0.72764 2.288295,-1.13815 0.591744,-0.32543 1.162132,-0.68859 1.733465,-1.04864 1.764346,-1.11189 3.554261,-2.19204 5.231159,-3.43189 0.647278,-0.47858 1.264745,-0.99854 1.858357,-1.54226 0.765616,-0.70126 1.599059,-1.36074 2.191386,-2.21343 0.442152,-0.63651 0.747701,-1.36943 0.977394,-2.10962 0.349155,-1.12515 0.510034,-2.30922 0.590707,-3.48454 0.0908,-1.32286 -0.102286,-2.65021 -0.122746,-3.97603 -0.0043,-0.27552 0.02229,-0.55201 0,-0.82666 -0.04642,-0.57193 -0.182612,-1.13301 -0.277587,-1.69891 -0.07309,-0.43554 -0.117361,-0.87732 -0.224929,-1.30565 -0.197864,-0.78788 -0.459289,-1.56162 -0.770064,-2.31217 -0.324868,-0.78458 -0.746038,-1.52596 -1.1393,-2.27859 -0.36728,-0.70291 -0.750705,-1.39737 -1.1393,-2.08872 -2.723515,-4.84542 -6.839331,-9.08332 -8.35485,-14.43111 -0.08423,-0.29721 -0.04482,-0.61808 -0.02549,-0.92639 0.01953,-0.31134 -0.154019,-0.91644 0.142416,-0.92497 3.726304,-0.10724 4.644426,0.46573 4.644426,0.46573 0,0 1.928963,1.06291 2.842525,1.60003 1.356949,0.7978 2.301416,1.53584 3.384248,2.39435 1.074182,0.85165 2.149138,1.71914 3.078269,2.72706 1.726543,1.87294 3.234434,3.95374 4.586244,6.11279 1.08435,1.73187 2.02274,3.56298 2.80415,5.45099 0.63535,1.53512 1.1283,3.13229 1.51906,4.74708 0.18111,0.74841 0.24957,1.51968 0.37977,2.2786 0.18476,1.0769 0.42197,2.14541 0.56965,3.22801 0.13322,0.9766 0.25699,1.95794 0.28482,2.94319 0.0224,0.7915 0.0223,1.59046 -0.0949,2.37354 -0.18417,1.22982 -0.51079,2.44417 -0.94942,3.60778 -0.64899,1.72164 -1.47686,3.38715 -2.46848,4.93696 -0.65528,1.02415 -1.40332,2.00434 -2.27859,2.84824 -1.00773,0.97162 -2.181012,1.76776 -3.372811,2.50205 -1.721034,1.06036 -3.554076,1.94177 -5.41743,2.7255 -1.712347,0.72022 -5.271949,1.80669 -5.271949,1.80669 z"
             id="path13"
             sodipodi:nodetypes="ccaaaaaaaaaaaaaaaascsaaaaaaaaaaaaaacc" /><path
             style="fill:url(#linearGradient17);stroke-width:0.264583"
             d="m 73.914329,203.34832 c -0.960345,0.32761 -1.772895,1.13661 -2.282547,2.01402 -0.60841,1.04742 -0.8446,2.35144 -0.738471,3.55809 0.07185,0.81688 0.490187,1.58173 0.912722,2.28452 0.157191,0.26145 0.591366,0.69849 0.591366,0.69849 0,0 4.459129,2.09759 6.854069,2.55553 1.571896,0.30056 4.800063,0.1007 4.800063,0.1007 0,0 1.304696,-1.12421 2.011926,-1.61261 0.60856,-0.42026 1.463967,-0.93085 1.476248,-1.67497 0.03016,-1.82769 -2.088286,-3.05597 -3.488174,-4.23141 -1.772817,-1.48858 -3.824136,-2.76074 -6.042032,-3.42383 -1.310665,-0.39185 -2.800443,-0.7102 -4.09517,-0.26853 z"
             id="path15"
             sodipodi:nodetypes="aaaacacsaaaa" /><path
             style="fill:url(#linearGradient19);stroke-width:0.264583"
             d="m 54.835173,206.811 c 0,0 -0.558517,1.67904 -0.67134,2.55108 -0.02871,0.22193 0.01586,0.44812 0,0.67134 -0.04487,0.63135 -0.22367,1.2484 -0.26854,1.87975 -0.0349,0.49107 0,0.98463 0,1.47694 0,0.58183 -0.03889,1.16495 0,1.74548 0.05006,0.74733 0.07253,1.51322 0.299716,2.22694 0.282197,0.88655 0.7774,1.69946 1.295209,2.47243 0.344152,0.51374 0.763874,0.97526 1.192116,1.42133 0.73259,0.76309 1.507825,1.49183 2.346308,2.13676 0.982102,0.7554 2.035439,1.42246 3.124115,2.01401 0.862474,0.46864 1.77224,0.84825 2.685347,1.20842 0.967713,0.3817 2.01027,0.5691 2.953888,1.007 0.591805,0.27463 1.349535,0.4435 1.678349,1.00701 0.20114,0.3447 0.02281,0.79787 0.03118,1.19688 0.222323,10.59618 0.561342,21.31907 0.505894,31.79152 -0.0021,0.39944 -0.105302,3.41129 -0.105302,3.41129 l 17.798838,0.0242 c 0,0 0.100007,-0.95262 0.117982,-1.43086 0.500078,-13.30469 1.215142,-26.71192 -0.284824,-39.94125 -0.09297,-0.82 -0.224359,-1.6531 -0.53707,-2.41682 -0.479977,-1.17222 -1.195398,-2.25581 -2.01402,-3.22242 -0.626319,-0.73954 -1.393252,-1.35726 -2.178063,-1.92583 -0.620754,-0.44971 -1.302726,-0.81144 -1.984237,-1.16233 -0.510419,-0.2628 -1.042345,-0.48215 -1.571882,-0.70392 -0.50884,-0.2131 -1.02139,-0.41845 -1.541685,-0.60181 -0.543306,-0.19148 -1.103853,-0.33117 -1.648155,-0.5198 -0.548051,-0.18992 -1.079938,-0.4244 -1.627505,-0.61572 -0.738675,-0.25809 -1.48665,-0.48915 -2.235079,-0.71741 -1.460221,-0.44536 -2.92712,-0.86937 -4.399648,-1.27217 -1.382111,-0.37807 -2.784316,-0.6813 -4.162301,-1.07414 -1.442995,-0.41138 -2.86996,-0.87761 -4.29656,-1.34267 -1.507038,-0.49128 -4.502733,-1.52907 -4.502733,-1.52907 z"
             id="path17"
             sodipodi:nodetypes="caaaaaaaaaaaaaasccaaaaaaaaaaaaaacc" /><path
             style="fill:url(#linearGradient23);stroke-width:0.264583"
             d="m 82.854272,264.902 c 0,-0.0786 -8.73459,0.13637 -8.73459,0.13637 0,0 -0.850536,0.84516 -1.13371,1.3642 -0.469371,0.86034 -0.698081,1.84181 -0.884257,2.80401 -0.110854,0.57292 -0.117288,1.16218 -0.13427,1.74548 -0.02444,0.83953 0.0385,1.67938 0.04677,2.51922 0.01754,1.78138 0.006,5.3444 0.006,5.3444 l 4.750338,0.0507 11.846035,0.14171 c 0,0 0.05279,-2.55044 -0.102391,-3.81209 -0.08769,-0.71289 -0.25423,-1.41745 -0.465864,-2.10382 -0.38258,-1.2408 -0.907429,-2.4355 -1.445763,-3.61708 -0.305466,-0.67046 -0.600589,-1.35357 -1.010385,-1.96586 -0.416589,-0.62244 -0.908597,-1.20016 -1.455876,-1.7115 -0.352203,-0.32907 -1.096034,-0.83637 -1.162454,-0.86007 -0.03496,-0.0125 -0.119583,-0.0357 -0.119583,-0.0357 z"
             id="path21"
             sodipodi:nodetypes="scaaaacccaaaaasss" /><path
             style="fill:url(#linearGradient25);stroke-width:0.264583"
             d="m 102.2177,264.87955 -8.32531,0.0156 c 0,0 -0.489919,0.26507 -0.694363,0.45027 -0.297155,0.26919 -0.53943,0.59908 -0.750699,0.93986 -0.292487,0.47178 -0.488934,0.99745 -0.703218,1.50952 -0.157185,0.37562 -0.314649,0.75315 -0.426535,1.14466 -0.171304,0.59942 -0.309403,1.21266 -0.371624,1.83296 -0.260636,2.5984 7.02e-4,7.83431 7.02e-4,7.83431 l 15.069147,0.0868 c 0,0 0.068,-2.20093 -0.0393,-3.29363 -0.12665,-1.28981 -0.36793,-2.57267 -0.71066,-3.82255 -0.37818,-1.37918 -0.86565,-2.73517 -1.47696,-4.02802 -0.4414,-0.9335 -1.57117,-2.66977 -1.57117,-2.66977 z"
             id="path23"
             sodipodi:nodetypes="ccaaaaaccaaac" /><path
             style="fill:url(#linearGradient27);stroke-width:0.264583"
             d="m 87.349801,211.80008 c -0.386702,0.51346 -0.888401,0.90207 -1.441803,1.18729 -1.7676,0.91103 -4.089848,1.26987 -5.760715,1.55034 -0.482466,0.081 1.354465,0.75738 1.986873,1.20446 0.967686,0.68411 1.98616,1.34665 2.751496,2.25146 0.815601,0.96423 1.304086,2.16546 1.879744,3.28955 0.308485,0.60238 0.607351,1.21273 0.841642,1.84766 0.296859,0.80449 0.487772,1.6444 0.709885,2.47264 0.236846,0.88318 0.534869,1.75638 0.663886,2.66162 1.723826,12.09511 1.417954,36.62456 1.417954,36.62456 l 16.968377,0.16607 c 0,0 0.32687,-30.78147 0.0421,-40.34167 -0.0586,-1.9656 -0.49613,-3.52564 -1.27257,-5.09426 -0.63588,-1.28464 -1.61701,-2.40302 -2.68536,-3.35867 -1.28884,-1.15288 -2.8022,-2.07661 -4.386453,-2.76971 -1.385633,-0.6062 -2.899766,-0.87736 -4.382931,-1.17347 -0.903196,-0.18032 -1.827602,-0.23118 -2.738839,-0.36506 -0.701197,-0.10302 -1.397089,-0.24108 -2.099269,-0.33717 -0.740162,-0.10129 -1.474581,-0.11419 -2.226949,-0.25215 -0.182156,-0.0334 0.06379,-0.003 -0.267098,0.43651 z"
             id="path25"
             sodipodi:nodetypes="sasaaaaaaccsaaaaaasss" /><path
             style="fill:url(#linearGradient29);stroke-width:0.264583"
             d="m 120.73145,106.98913 2.7019,3.52403 0.85237,0.82899 2.37004,1.58782 1.87976,1.07414 1.61121,0.80561 0.77766,0.6392 0.75954,0.94942 0.47472,0.85447 0.25254,1.39935 -0.0365,0.6412 0.001,0.61782 -0.017,0.46889 -0.0105,0.29064 v 0.75953 c 0,0 0.0426,1.18515 0.3216,1.68386 0.15555,0.27806 0.38163,0.49983 0.6278,0.68968 0.27053,0.20864 0.58864,0.35432 0.90837,0.47471 0.29419,0.11077 0.60456,0.18274 0.91634,0.22295 0.38481,0.0496 0.77642,0.0426 1.16381,0.0208 0.6891,-0.0387 1.38364,-0.1004 2.05309,-0.26829 0.22233,-0.0557 0.44061,-0.13597 0.6432,-0.24319 0.53357,-0.28241 1.06173,-0.60753 1.48228,-1.04065 0.38105,-0.39244 0.65751,-0.8814 0.90294,-1.37025 0.20824,-0.41478 0.34499,-0.86331 0.47472,-1.30893 0.16311,-0.56028 0.31608,-1.12889 0.37975,-1.70895 0.0518,-0.47188 0.0314,-0.95046 0,-1.42413 -0.0317,-0.47786 -0.0681,-0.96095 -0.18989,-1.42412 -0.10706,-0.40724 -0.23494,-0.8233 -0.47043,-1.17237 -0.24655,-0.36547 -0.59195,-0.66434 -0.95369,-0.91634 -0.37014,-0.25785 -0.78738,-0.4551 -1.21769,-0.59047 -0.3416,-0.10745 -0.70347,-0.14725 -1.0609,-0.16907 -0.30507,-0.0186 -0.91633,0.0331 -0.91633,0.0331 h -0.20214 c 0,0 -0.0706,-0.97203 -0.11576,-1.45719 -0.0624,-0.66978 -0.0562,-1.3528 -0.21442,-2.00661 -0.18081,-0.74735 -0.4397,-1.48986 -0.8305,-2.15206 -0.22223,-0.37657 -0.53168,-0.698 -0.84305,-1.005 -0.3088,-0.30448 -0.667,-0.55462 -1.00846,-0.82197 -0.38991,-0.30528 -0.76449,-0.63518 -1.18745,-0.89274 -0.45751,-0.27859 -0.94409,-0.51489 -1.4475,-0.69793 -0.63365,-0.23039 -1.29669,-0.38006 -1.96073,-0.4969 -0.57467,-0.10112 -1.15854,-0.15608 -1.74173,-0.17502 -0.62626,-0.0203 -1.25839,-0.023 -1.87861,0.0661 -0.51168,0.0735 -1.01464,0.21315 -1.50251,0.38405 -0.33187,0.11625 -0.6494,0.27198 -0.96168,0.43365 -0.28926,0.14976 -0.56877,0.31854 -0.84222,0.49553 -0.19965,0.12922 -0.40019,0.2594 -0.5819,0.41283 -0.27357,0.231 -0.551,0.46849 -0.75954,0.75954 -0.26498,0.36983 -0.60351,1.2242 -0.60351,1.2242 z"
             id="path28"
             sodipodi:nodetypes="cccccccccccccccsaaaaaaaaaaaaaaaaccaaaaaaaaaaaaaaacc" /><path
             style="fill:url(#linearGradient31);stroke-width:0.264583"
             d="m 120.86061,107.09407 c 0.45541,-0.0345 0.68969,0.60167 0.99897,0.93773 0.25932,0.28176 0.49216,0.58783 0.71417,0.89984 0.23578,0.33139 0.41842,0.69854 0.65427,1.02988 0.24013,0.33737 0.47903,0.68079 0.77265,0.9728 0.30514,0.30347 0.67419,0.5351 1.01537,0.79741 0.35949,0.27638 0.70681,0.57079 1.08695,0.81799 0.20552,0.13366 0.42204,0.25071 0.64257,0.35778 0.27817,0.13506 0.56476,0.25357 0.85589,0.35777 0.31108,0.11134 0.64228,0.16303 0.94941,0.28483 0.32891,0.13044 0.65705,0.27544 0.94943,0.47471 0.35182,0.23978 0.64269,0.55916 0.9494,0.85447 0.30211,0.29088 0.62217,0.56915 0.87647,0.90265 0.25594,0.33565 0.45389,0.71356 0.64261,1.09112 0.18394,0.368 0.47469,1.1393 0.47469,1.1393 l -0.0192,2.23793 c 0,0 -0.49972,0.39843 -0.75259,0.59378 -0.54881,0.42398 -1.06059,0.90513 -1.65934,1.25506 -0.33946,0.19839 -0.728,0.29867 -1.08169,0.47043 -0.42033,0.20412 -1.23426,0.66459 -1.23426,0.66459 l -1.32918,0.28482 h -1.51906 l -1.04436,-0.37976 c 0,0 -0.7283,-0.35112 -1.06913,-0.56686 -0.22486,-0.14233 -0.43857,-0.30338 -0.63981,-0.4775 -0.20307,-0.17571 -0.38875,-0.37119 -0.56965,-0.56965 -0.28393,-0.31148 -0.55993,-0.63185 -0.8077,-0.97281 -0.25601,-0.3523 -0.49146,-0.72097 -0.69827,-1.10422 -0.15056,-0.279 -0.28688,-0.56737 -0.39287,-0.86616 -0.18323,-0.51653 -0.321,-1.0509 -0.41624,-1.59062 -0.0953,-0.53985 -0.12778,-1.0898 -0.15337,-1.63739 -0.0532,-1.13806 -0.0378,-2.27923 0,-3.4179 0.018,-0.54279 0.0205,-1.0897 0.10804,-1.62569 0.0574,-0.35129 0.15376,-0.69684 0.27171,-1.03267 0.10329,-0.29408 0.21898,-0.58747 0.37979,-0.85448 0.29071,-0.48267 0.48248,-1.28666 1.04433,-1.32918 z"
             id="path29"
             sodipodi:nodetypes="aaaaaaaaaaaaaaccaaaccccaaaaaaaaaaaaa" /><path
             style="fill:url(#linearGradient33);stroke-width:0.264583"
             d="m 132.43789,120.19321 0.4803,6.6487 0.0949,0.75953 -0.28483,0.94942 -0.56964,0.66459 -0.85448,0.94941 -0.85447,0.56966 -0.75954,0.37976 -0.47471,0.18988 -0.94941,0.095 -0.94943,-0.095 -0.85447,-0.28482 -0.9494,-0.75953 -0.56965,-0.56965 -0.56965,-0.85448 -0.37978,-1.04435 -0.18987,-0.66459 v -0.28483 l 0.5574,-3.48775 c 0,0 0.64668,0.12271 0.97393,0.15253 0.15356,0.014 0.30842,0.0198 0.46244,0.0122 0.25484,-0.0125 0.51071,-0.0385 0.75954,-0.0949 0.39039,-0.0885 0.76512,-0.2375 1.1393,-0.37976 0.45057,-0.1713 0.89999,-0.3502 1.32918,-0.56965 0.4929,-0.25203 0.9615,-0.55042 1.42412,-0.85448 0.68169,-0.44805 1.98822,-1.42691 1.98822,-1.42691 z"
             id="path31"
             sodipodi:nodetypes="cccccccccccccccccccaaaaaacc" /><path
             style="fill:url(#linearGradient48);stroke-width:0.264583"
             d="m 151.82653,106.81624 c 0,0 -1.34715,0.28086 -2.00877,0.46772 -0.67417,0.1904 -1.33801,0.41819 -1.99379,0.66459 -0.99586,0.37418 -1.98622,0.76951 -2.94318,1.23424 -0.58618,0.28467 -1.15645,0.60386 -1.70894,0.94941 -0.65504,0.40968 -1.29751,0.84407 -1.89883,1.32918 -0.90634,0.73119 -1.82925,1.46961 -2.56342,2.37354 -0.5817,0.7162 -0.98327,1.56302 -1.42415,2.37354 -0.52135,0.95847 -1.02856,1.92886 -1.4412,2.93891 -0.40091,0.98134 -0.66858,2.01198 -0.99968,3.01902 -0.25482,0.77505 -0.48897,1.55707 -0.75954,2.32677 -0.3208,0.91259 -0.60218,1.8448 -1.02377,2.71543 -0.308,0.63607 -0.69791,1.2307 -1.09253,1.81698 -0.35342,0.52508 -0.72488,1.04065 -1.13929,1.51906 -0.53956,0.62289 -1.12708,1.20619 -1.746,1.75029 -0.38984,0.34271 -0.78535,0.68884 -1.23426,0.94942 -0.43595,0.25306 -0.92042,0.41393 -1.39508,0.58357 -0.32729,0.11698 -0.66015,0.22136 -0.99904,0.29848 -4.42589,1.00724 -7.85413,1.39273 -13.44922,2.13201 -0.17711,0.0234 -0.22324,0.41342 -0.36677,0.61432 -0.32835,0.4596 -0.69919,0.64872 -0.69919,0.64872 l 3e-5,0.59374 -0.0956,1.75747 c 0,0 1.56007,0.0547 2.33026,0.17033 0.65411,0.0982 1.30928,0.22635 1.93425,0.44295 0.59982,0.20789 1.14933,0.53953 1.72134,0.81486 0.76399,0.36774 1.62488,0.64203 2.28476,1.11804 0.66749,0.4815 1.19624,0.94192 1.84206,1.34197 0.63835,0.39541 1.25416,1.06458 1.99858,1.03939 0.72337,-0.0245 1.15305,-0.007 1.72893,-0.032 0.95024,-0.0409 1.90209,-0.0828 2.84685,-0.19267 0.91569,-0.10647 1.82702,-0.25859 2.72851,-0.45133 0.60803,-0.12999 1.21489,-0.27555 1.8039,-0.47471 0.77947,-0.26356 1.53802,-0.59081 2.27859,-0.94941 0.58651,-0.284 1.15102,-0.61271 1.70895,-0.94942 0.93025,-0.56141 2.72853,-1.78329 2.72853,-1.78329 l -1.49431,45.91976 0.32651,0.0533 3.18638,1.09454 10.26652,-0.28911"
             id="path33"
             sodipodi:nodetypes="caaaaaaaaaaaaaaaaasscccaaasasaaaaaaccccc"
             transform="translate(-27.912817,19.178194)" /><path
             style="fill:url(#linearGradient57);stroke-width:0.264583"
             d="m 132.91031,126.35873 -0.72046,2.81714 -0.75476,2.77249 -0.53682,2.31562 -0.33764,2.56763 -0.46993,4.58188 -0.21818,2.9371 -0.0839,2.55108 -0.28532,6.61269 -0.36046,14.15623 0.15905,35.0025 0.13428,1.61122 0.13426,1.27554 2.1483,0.33567 12.90459,-0.70986 1.55778,0.0143 0.96956,-0.29111 c 0,0 -0.77183,-0.53449 -1.06529,-0.8931 -0.4518,-0.55211 -0.77026,-1.21272 -1.0233,-1.87974 -0.13272,-0.34985 -0.1835,-0.72601 -0.25226,-1.09381 -0.0828,-0.44289 -0.17765,-0.88759 -0.19257,-1.3379 -0.0131,-0.39471 0.13288,-0.69372 0.0908,-1.1813 -0.0315,-0.36534 -0.007,-0.74519 0.0746,-1.10533 0.13403,-0.59119 0.56181,-1.09377 0.67203,-1.68986 0.11554,-0.62484 -0.0244,-1.90615 -0.0244,-1.90615 0,0 -0.17717,0.62892 0.0225,0.64619 2.17404,0.18811 7.73193,-0.0354 7.73193,-0.0354 0,0 0.2162,-15.89963 0.15105,-23.84929 -0.0161,-1.9697 -0.11189,-3.93813 -0.13427,-5.90777 -0.0224,-1.96913 0.0592,-3.93941 0,-5.90778 -0.11194,-3.71979 -0.2688,-7.44458 -0.67136,-11.14421 -0.0931,-0.85585 -0.24416,-1.70493 -0.4028,-2.55109 -0.19412,-1.03539 -0.37531,-2.07717 -0.67133,-3.08815 -0.46957,-1.60369 -0.98599,-3.21092 -1.74548,-4.69937 -0.58675,-1.14991 -1.31878,-2.23323 -2.14828,-3.22242 -0.87431,-1.04263 -1.87793,-1.98354 -2.94992,-2.8216 -1.02303,-0.79977 -2.11913,-1.52592 -3.29253,-2.08213 -2.6697,-1.26549 -8.40947,-2.79993 -8.40947,-2.79993 z"
             id="path55"
             sodipodi:nodetypes="cccccccccccccccccaaaasaacscaaaaaaaaaacc" /><path
             style="fill:url(#linearGradient59);stroke-width:0.264583"
             d="m 123.93518,125.86327 c 0,0 -0.75135,1.71026 -1.06537,2.58907 -0.42604,1.19235 -0.86471,2.39076 -1.10798,3.63335 -0.26863,1.37217 -0.27769,2.78294 -0.37978,4.17742 -0.16663,2.27602 -0.26775,4.55643 -0.37976,6.83579 -0.11543,2.349 -0.23816,4.69808 -0.30122,7.04907 -0.0643,2.39667 -0.0403,4.79494 -0.0785,7.19217 -0.0467,2.92647 -0.17198,6.22946 -0.1843,8.7786 -0.0143,2.95122 8.72163,1.11074 8.72163,1.11074 l 0.18613,-7.08682 0.14113,-5.8427 0.20177,-5.36167 0.13504,-3.11358 0.51881,-6.82098 0.515,-4.03568 0.48047,-2.21047 0.70919,-2.96047 0.13775,-0.59736 c 0,0 -1.55964,0.58323 -2.35474,0.82855 -0.53153,0.164 -1.05745,0.3941 -1.61259,0.42934 -0.48241,0.0306 -0.97929,-0.0382 -1.43724,-0.19294 -0.27184,-0.0918 -0.50793,-0.26886 -0.74781,-0.42629 -0.26458,-0.17365 -0.52878,-0.35307 -0.75954,-0.56964 -0.3362,-0.31553 -0.66562,-0.65376 -0.89837,-1.05177 -0.11778,-0.20141 -0.18683,-0.43022 -0.24093,-0.65718 -0.13203,-0.55387 -0.19875,-1.69655 -0.19875,-1.69655 z"
             id="path57"
             sodipodi:nodetypes="caaaaaasccccccccccaaaaaaacc" /><path
             style="fill:url(#linearGradient61);stroke-width:0.264583"
             d="m 120.43264,166.0046 7.92833,1.09253 -1.60118,31.65289 -0.47898,29.48947 1.31207,50.22837 -17.65058,-0.0992 -0.18988,-73.29488 c 0,0 3.66167,0.74684 5.52057,0.86426 1.19607,0.0755 2.41044,0.0847 3.59383,-0.10472 0.68209,-0.10918 1.98677,-0.58922 1.98677,-0.58922 z"
             id="path59"
             sodipodi:nodetypes="cccccccaacc" /><path
             style="fill:url(#linearGradient63);stroke-width:0.264583"
             d="m 128.23034,167.07288 c 0,0 -1.47154,22.56964 -1.81566,33.87092 -0.26296,8.63591 -0.24675,17.27931 -0.18989,25.91904 0.0508,7.72337 0.47472,23.16574 0.47472,23.16574 l 0.14239,28.48247 21.17198,-0.0475 -0.47471,-30.14395 c 0,0 -0.0519,-24.88261 -0.53031,-41.48658 -0.0702,-2.4344 0.7204,-1.78772 -0.9771,-1.77859 -0.49111,0.003 -1.48874,0.0976 -2.25643,0.13499 -0.41748,0.0203 -1.1618,0.009 -1.68325,0.0163 -2.27622,0.0316 -4.11323,0.0462 -5.58575,0.11765 -2.42599,0.11774 -4.47512,0.1824 -6.11481,0.22766 -0.36722,0.0101 -0.19494,-0.3935 -0.23387,-1.96728 -0.29976,-12.11737 -0.99851,-36.34932 -0.99851,-36.34932"
             id="path61"
             sodipodi:nodetypes="caaccccsssssssc" /><path
             style="fill:url(#linearGradient65);stroke-width:0.264583"
             d="m 144.64345,194.51149 c 2.7435,-0.0238 7.68432,-0.0712 7.68432,-0.0712 0,0 -0.29538,4.17114 -0.52812,6.24834 -0.0385,0.34343 -0.0781,0.68742 -0.14347,1.02676 -0.0451,0.23398 -0.0779,0.47472 -0.17101,0.69406 -0.46904,1.10534 -0.8657,2.4692 -1.91663,3.04999 -0.77557,0.42862 -1.87887,0.42141 -2.65838,0 -0.88627,-0.47911 -1.24007,-1.61093 -1.65537,-2.52884 -0.48014,-1.0612 -0.81249,-2.20898 -0.93263,-3.36754 -0.17403,-1.67824 -0.23198,-5.04673 0.32129,-5.05153 z"
             id="path63"
             sodipodi:nodetypes="scaaaaaaass" /></g></g></g></g></svg>
